<svg xmlns="http://www.w3.org/2000/svg">
    <g>
          <path d="M0,4.99508929 C0,3.8932319 0.897026226,3 2.00494659,3 L21.9950534,3 C23.1023548,3 24,3.8926228 24,4.99508929 L24,19.0049107 C24,20.1067681 23.1029738,21 21.9950534,21 L2.00494659,21 C0.897645164,21 0,20.1073772 0,19.0049107 L0,4.99508929 Z M11,5 L13,5 L13,7 L11,7 L11,5 Z M7,7 L17,7 L17,9 L7,9 L7,7 Z M7,9 L9,9 L9,11 L7,11 L7,9 Z M7,11 L17,11 L17,13 L7,13 L7,11 Z M15,13 L17,13 L17,15 L15,15 L15,13 Z M7,15 L17,15 L17,17 L7,17 L7,15 Z M11,17 L13,17 L13,19 L11,19 L11,17 Z"></path>
        </g>
      </g>
      
</svg>