<svg xmlns="http://www.w3.org/2000/svg"><g xmlns="http://www.w3.org/2000/svg" id="account_unlinked"><path d="M12.0023692,8 L7.5,8 L9.5,4 L12.0023692,4 L14.5047384,4 L16.5047384,8 L12.0023692,8 Z M5,4 L8,4 L6,8 L2,8 L5,4 Z M6,9.5 L10.3999996,20 L2,9.5 L6,9.5 Z M7.5,9.5 L12,9.5 L12,21 L7.5,9.5 Z M19.0047384,4 L22.0047384,8 L18.0047384,8 L16.0047384,4 L19.0047384,4 Z M18.0047384,9.5 L22.0047384,9.5 L13.6047388,20 L18.0047384,9.5 Z M16.5047384,9.5 L12.0047384,21 L12.0047384,9.5 L16.5047384,9.5 Z"/></g></svg>