<svg xmlns="http://www.w3.org/2000/svg">
    <g id="account_some_linked">
        <path d="M17.919928,14.6060133 C16.9305602,14.80302 16.0368598,15.2654293 15.3161733,15.9158946 L18.0047384,9.5 L22.0047384,9.5 L17.919928,14.6060133 Z M12.0047384,8 L7.5,8 L9.5,4 L12.0047384,4 L14.5047384,4 L16.5047384,8 L12.0047384,8 Z M5,4 L8,4 L6,8 L2,8 L5,4 Z M6,9.5 L10.3999996,20 L2,9.5 L6,9.5 Z M7.5,9.5 L12,9.5 L12,21 L7.5,9.5 Z M19.0047384,4 L22.0047384,8 L18.0047384,8 L16.0047384,4 L19.0047384,4 Z M16.5047384,9.5 L12.0047384,21 L12.0047384,9.5 L16.5047384,9.5 Z M19,24 C16.790861,24 15,22.209139 15,20 C15,17.790861 16.790861,16 19,16 C21.209139,16 23,17.790861 23,20 C23,22.209139 21.209139,24 19,24 Z M17,19.25 L17,20.75 L21,20.75 L21,19.25 L17,19.25 Z"></path>
      </g>
      
</svg>