<svg xmlns="http://www.w3.org/2000/svg"><g xmlns="http://www.w3.org/2000/svg" id="account_linked"><path d="M 17.919928,14.606013 C 16.93056,14.80302 16.03686,15.265429 15.316173,15.915895 L 18.004738,9.5 l 4,0 -4.08481,5.106013 z M 12.002369,8 7.5,8 l 2,-4 2.502369,0 2.502369,0 2,4 -4.502369,0 z M 5,4 8,4 6,8 2,8 5,4 z M 6,9.5 10.4,20 2,9.5 l 4,0 z m 1.5,0 4.5,0 L 12,21 7.5,9.5 z M 19.004738,4 l 3,4 -4,0 -2,-4 3,0 z m -2.5,5.5 -4.5,11.5 0,-11.5 4.5,0 z"/><path d="m 19,24 c -2.209139,0 -4,-1.790861 -4,-4 0,-2.209139 1.790861,-4 4,-4 2.209139,0 4,1.790861 4,4 0,2.209139 -1.790861,4 -4,4 z m -0.249982,-3.911591 -1.251249,-1.213683 -1.044374,1.0767 2.313589,2.244128 2.981617,-2.992448 -1.062582,-1.058736 -1.937001,1.944039 z"/></g></svg>