<svg xmlns="http://www.w3.org/2000/svg"><g xmlns="http://www.w3.org/2000/svg" transform="translate(1.000000, 3.000000)" viewBox="0 0 20 20" id="add_video_link"><path d="M16.6 10.8V8h-1.2v2.8H13v1.4h2.4V15h1.2v-2.8H19v-1.4h-2.4M14 1.07c0-.6-.43-1.07-.96-1.07H.96C.43 0 0 .48 0 1.07v9.86c0 .6.43 1.07.96 1.07h10.86V9.57H14v-8.5zM.85 9.12h1.43v1.6H.85v-1.6zm0-2.6h1.43V8.1H.85V6.5zm0-2.62h1.43v1.6H.85V3.9zm0-2.6h1.43v1.6H.85V1.3zm10.97 5.2h1.42v1.6h-1.42V6.5zm0-2.6h1.42v1.6h-1.42V3.9zm0-2.6h1.42v1.6h-1.42V1.3z"/></g></svg>