<svg xmlns="http://www.w3.org/2000/svg"><g xmlns="http://www.w3.org/2000/svg" id="applause"><path d="M1.26848545,11.4618188 C1.62646605,11.1038382 2.20686728,11.1038382 2.56484788,11.4618188 L2.56484788,11.4618188 L8.06484788,16.9618188 C11.2543673,20.1513382 16.4122994,20.1513382 19.6018188,16.9618188 C19.9597994,16.6038382 20.5402006,16.6038382 20.8981812,16.9618188 C21.2561618,17.3197994 21.2561618,17.9002006 20.8981812,18.2581812 C16.9927006,22.1636618 10.6739661,22.1636618 6.76848545,18.2581812 L6.76848545,18.2581812 L1.26848545,12.7581812 C0.91050485,12.4002006 0.91050485,11.8197994 1.26848545,11.4618188 Z M9.40583333,1 C9.67166667,1 9.92833333,1.10083333 10.13,1.29333333 L13.7966667,4.96916667 L16.675,7.8475 L17.3991667,7.12333333 L14.5208333,4.245 C14.1175,3.85083333 14.1175,3.2 14.5208333,2.80583333 C14.7225,2.61333333 14.9791667,2.5125 15.2358333,2.5125 C15.4925,2.5125 15.7583333,2.61333333 15.96,2.80583333 L18.8383333,5.68416667 C21.625,8.47083333 21.625,12.99 18.8383333,15.7675 C16.0516667,18.5541667 11.5416667,18.5541667 8.755,15.7675 L5.87666667,12.8891667 L2.8425,9.86416667 C2.44833333,9.46083333 2.44833333,8.81916667 2.8425,8.425 C3.04416667,8.22333333 3.31,8.1225 3.56666667,8.1225 C3.82333333,8.1225 4.08,8.22333333 4.28166667,8.425 L7.31583333,11.45 L8.04,10.7258333 L4.36416667,7.05916667 C3.97,6.665 3.97,6.01416667 4.36416667,5.62 C4.55666667,5.41833333 4.8225,5.3175 5.08833333,5.3175 C5.345,5.3175 5.60166667,5.41833333 5.80333333,5.62 L9.47916667,9.28666667 L10.1941667,8.57166667 L5.87666667,4.245 C5.47333333,3.85083333 5.47333333,3.2 5.87666667,2.80583333 C6.06916667,2.61333333 6.335,2.5125 6.59166667,2.5125 C6.8575,2.5125 7.11416667,2.61333333 7.31583333,2.80583333 L11.6333333,7.1325 L12.3575,6.40833333 L8.68166667,2.74166667 C8.2875,2.33833333 8.2875,1.69666667 8.68166667,1.29333333 C8.88333333,1.10083333 9.14,1 9.40583333,1 Z"/></g></svg>