<svg xmlns="http://www.w3.org/2000/svg"><g xmlns="http://www.w3.org/2000/svg" id="emoji_custom"><path d="M 6 3.53125 C 5.8145455 3.53125 5.6378409 3.6260232 5.46875 3.71875 L 0.5625 6.5 C 0.22431817 6.6963637 0 7.0447727 0 7.4375 L 0 13.6875 C 0 14.080228 0.22431817 14.428637 0.5625 14.625 L 11.46875 20.8125 C 11.637841 20.910681 11.814545 21 12 21 C 12.185455 21 12.36216 20.936481 12.53125 20.84375 L 23.4375 14.625 C 23.781136 14.428636 24 14.080227 24 13.6875 L 24 7.4375 C 24 7.0447727 23.775682 6.6963637 23.4375 6.5 L 18.53125 3.71875 C 18.362159 3.6260228 18.185455 3.53125 18 3.53125 C 17.814545 3.53125 17.637841 3.6260232 17.46875 3.71875 L 12.53125 6.5 C 12.198523 6.6909091 11.806932 6.6909091 11.46875 6.5 L 6.53125 3.71875 C 6.3621591 3.6260228 6.1854545 3.53125 6 3.53125 z M 18.125 4.09375 L 23.46875 7.09375 L 18.125 10.21875 L 18.125 4.09375 z "/></g></svg>