<svg xmlns="http://www.w3.org/2000/svg"><g xmlns="http://www.w3.org/2000/svg" id="emoji_nature"><path d="M16.165 13.707c1.718.339 3.455.543 4.085.543 1.4 0 2.25-1.007 2.25-2.25s-.85-2.25-2.25-2.25c-.63 0-2.367.204-4.085.543.216.526.335 1.103.335 1.707 0 .604-.12 1.18-.335 1.707zm-.013-3.445c1.454-.975 2.827-2.059 3.273-2.505.99-.99.878-2.303 0-3.182-.88-.878-2.193-.99-3.182 0-.446.446-1.53 1.819-2.505 3.273a4.516 4.516 0 0 1 2.414 2.414zm-2.445-2.427c.339-1.718.543-3.455.543-4.085 0-1.4-1.007-2.25-2.25-2.25s-2.25.85-2.25 2.25c0 .63.204 2.367.543 4.085A4.487 4.487 0 0 1 12 7.5c.604 0 1.18.12 1.707.335zm-3.445.013C9.287 6.394 8.203 5.02 7.757 4.575c-.99-.99-2.303-.878-3.182 0-.878.88-.99 2.193 0 3.182.446.446 1.819 1.53 3.273 2.505a4.516 4.516 0 0 1 2.414-2.414zm-2.427 2.445C6.117 9.954 4.38 9.75 3.75 9.75c-1.4 0-2.25 1.007-2.25 2.25s.85 2.25 2.25 2.25c.63 0 2.367-.204 4.085-.543A4.487 4.487 0 0 1 7.5 12c0-.604.12-1.18.335-1.707zm.013 3.445c-1.454.975-2.827 2.059-3.273 2.505-.99.99-.878 2.303 0 3.182.88.878 2.193.99 3.182 0 .446-.446 1.53-1.819 2.505-3.273a4.516 4.516 0 0 1-2.414-2.414zm2.445 2.427c-.339 1.718-.543 3.455-.543 4.085 0 1.4 1.007 2.25 2.25 2.25s2.25-.85 2.25-2.25c0-.63-.204-2.367-.543-4.085A4.487 4.487 0 0 1 12 16.5c-.604 0-1.18-.12-1.707-.335zm3.445-.013c.975 1.454 2.059 2.827 2.505 3.273.99.99 2.303.878 3.182 0 .878-.88.99-2.193 0-3.182-.446-.446-1.819-1.53-3.273-2.505a4.516 4.516 0 0 1-2.414 2.414z"/></g></svg>