<svg xmlns="http://www.w3.org/2000/svg"><g xmlns="http://www.w3.org/2000/svg" fill-rule="evenodd" id="emoji_people"><path d="M19.5 4.652c1.856 1.893 3 4.487 3 7.348 0 5.799-4.701 10.5-10.5 10.5S1.5 17.799 1.5 12c0-2.861 1.144-5.455 3-7.348v-.15h.15A10.466 10.466 0 0 1 12 1.5c2.862 0 5.456 1.145 7.35 3.002h.15v.15zm-1.453 10.35A6.75 6.75 0 0 1 12 18.75a6.75 6.75 0 0 1-6.047-3.748h12.094zM16.5 12.375a1.875 1.875 0 1 0 0-3.75 1.875 1.875 0 0 0 0 3.75zm-9 0a1.875 1.875 0 1 0 0-3.75 1.875 1.875 0 0 0 0 3.75z"/></g></svg>