<svg xmlns="http://www.w3.org/2000/svg"><g xmlns="http://www.w3.org/2000/svg" id="emoji_food"><path d="M22.5 13.5v-.991a2.003 2.003 0 0 0-1.995-2.009H3.495c-1.093 0-1.995.9-1.995 2.009v.991h6a4.5 4.5 0 0 1-6 4.244v1.567a6.01 6.01 0 0 0 6-1.842A5.986 5.986 0 0 0 12 19.5c1.792 0 3.4-.786 4.5-2.031a6.01 6.01 0 0 0 6 1.842v-1.567a4.5 4.5 0 0 1-6-4.244h6v7.998a.995.995 0 0 1-.999 1.002H2.5c-.552 0-.999-.456-.999-1.002V13.5h21zm-17.25-6H7.5v3H5.25v-3zm5.25 0h3v3h-3v-3zm6 0h2.25v3H16.5v-3zM17.625 6c.828 0 1.5-.756 1.5-1.688 0-.931-1.5-2.812-1.5-2.812s-1.5 1.88-1.5 2.813c0 .931.672 1.687 1.5 1.687zM12 6a2.25 2.25 0 0 0 2.25-2.25C14.25 2.507 12 0 12 0S9.75 2.507 9.75 3.75A2.25 2.25 0 0 0 12 6zM6.375 6c.828 0 1.5-.756 1.5-1.688 0-.931-1.5-2.812-1.5-2.812s-1.5 1.88-1.5 2.813c0 .931.672 1.687 1.5 1.687zM7.5 13.5h9a4.5 4.5 0 1 1-9 0z"/></g></svg>