<svg xmlns="http://www.w3.org/2000/svg"><g xmlns="http://www.w3.org/2000/svg" id="emoji_activities"><path d="M2.85 6.005A11.187 11.187 0 0 0 1 11.475h5.934a6.756 6.756 0 0 0-4.084-5.47zm.94-1.222A11.223 11.223 0 0 1 11.474 1v10.475H8.442a8.255 8.255 0 0 0-4.653-6.692zm-.94 13.663A11.187 11.187 0 0 1 1 12.976h5.934a6.756 6.756 0 0 1-4.084 5.47zm.94 1.222a11.223 11.223 0 0 0 7.685 3.783V12.975H8.442a8.255 8.255 0 0 1-4.653 6.693zm17.81-1.222a11.187 11.187 0 0 0 1.85-5.47h-5.933a6.756 6.756 0 0 0 4.084 5.47zm-.938 1.222a11.223 11.223 0 0 1-7.687 3.783V12.975h3.034a8.255 8.255 0 0 0 4.653 6.693zM21.6 6.005a11.187 11.187 0 0 1 1.85 5.47h-5.934a6.756 6.756 0 0 1 4.084-5.47zm-.94-1.222A11.223 11.223 0 0 0 12.976 1v10.475h3.034a8.255 8.255 0 0 1 4.653-6.692z"/></g></svg>