<svg xmlns="http://www.w3.org/2000/svg"><g xmlns="http://www.w3.org/2000/svg" id="emoji_travel"><path d="M22.056 10.668L19.657 3.47A.73.73 0 0 0 19.001 3H4.999a.737.737 0 0 0-.656.471l-2.398 7.194a.994.994 0 0 0-.445.833v10.511c0 .263.22.491.49.491h2.77c.267 0 .49-.22.49-.491V19.5h13.5v2.509c0 .263.22.491.49.491h2.77c.267 0 .49-.22.49-.491V11.497a.996.996 0 0 0-.444-.83zM4 10.5l1.842-5.529a.743.743 0 0 1 .657-.471h10.995a.73.73 0 0 1 .657.471l1.842 5.529H4zm14.75 5.625a1.875 1.875 0 1 0 0-3.75 1.875 1.875 0 0 0 0 3.75zm-13.5 0a1.875 1.875 0 1 0 0-3.75 1.875 1.875 0 0 0 0 3.75z"/></g></svg>