<svg xmlns="http://www.w3.org/2000/svg"><style type="text/css">.google_play_games__Graphic_x0020_Style_x0020_5undefined</style><g xmlns="http://www.w3.org/2000/svg" viewBox="0 0 192 192" id="google_play_games"><style>
    .google_play_games__Graphic_x0020_Style_x0020_5{fill:#fafafa}
  </style><switch><g xmlns="http://www.w3.org/2000/svg"><linearGradient gradientUnits="userSpaceOnUse" x1="0" x2=".5" y1="0" y2=".866"><stop offset="0" stop-color="#064d25" stop-opacity="0"/><stop offset="1" stop-color="#064d25" stop-opacity=".25"/></linearGradient><path fill="none" d="M0 0h192v192H0z"/><path d="M170.8 86.12L37.39 10.3c-5.69-3.24-10.76-2.93-13.94.15l-.01-.01C21.28 12.52 20 15.9 20 20.33v151.34c0 4.43 1.28 7.81 3.44 9.9l.01-.01c3.18 3.08 8.24 3.38 13.94.15l133.41-75.82c9.56-5.44 9.56-14.34 0-19.77z" fill="#097138"/><linearGradient gradientUnits="userSpaceOnUse" x1="98.9853" x2="98.9853" y1="184.2492" y2="8.2492"><stop offset="0" stop-color="#fff" stop-opacity="0"/><stop offset="1" stop-color="#fff" stop-opacity=".1"/></linearGradient><path d="M170.8 86.12L37.39 10.3c-5.69-3.24-10.76-2.93-13.94.15l-.01-.01C21.28 12.52 20 15.9 20 20.33v151.34c0 4.43 1.28 7.81 3.44 9.9l.01-.01c3.18 3.08 8.24 3.38 13.94.15l133.41-75.82c9.56-5.44 9.56-14.34 0-19.77z" fill="url(#google_play_games__SVGID_2_)"/><path d="M170.83 87.12L37.39 11.3C27.82 5.87 20 10.38 20 21.33v-1C20 9.38 27.82 4.87 37.39 10.3l133.44 75.82c5 2.84 7.36 6.63 7.13 10.38-.21-3.41-2.57-6.79-7.13-9.38z" opacity=".1" fill="#fff"/><path d="M160.78 111.57c-1.98-11.56-4.68-27.34-6.63-38.7-.17-.98-.49-2.51-.49-2.51h-1s.34 3.02.34 4.66c0 17.61-13.67 31.02-31.09 31.02H84l-9 9h44l12.79 13.01 28.99-16.48z" fill="#00b359"/><linearGradient gradientUnits="userSpaceOnUse" x1="125.302" x2="134.1527" y1="111.7027" y2="127.0326"><stop offset="0" stop-color="#064d25" stop-opacity="0"/><stop offset="1" stop-color="#064d25" stop-opacity=".25"/></linearGradient><path d="M160.78 111.57c-1.98-11.56-4.68-27.34-6.63-38.7-.17-.98-.49-2.51-.49-2.51h-1s.34 3.02.34 4.66c0 17.61-13.67 31.02-31.09 31.02H84l-9 9h44l12.79 13.01 28.99-16.48z" fill="url(#google_play_games__SVGID_3_)"/><path d="M122.32 43.01H73.36c-15.7 0-28.49 9.79-31.93 29.87-3.43 20.06-9.23 53.94-9.23 53.94-.13.74-.19 1.45-.19 2.23 0 7.16 5.71 12.95 12.75 12.95 3.52 0 6.71-1.39 9.02-3.74l30.82-31.21h37.73c17.42 0 31.68-14.41 31.68-32.02-.01-17.62-14.27-32.02-31.69-32.02z" fill="#00e26b"/><path class="google_play_games__Graphic_x0020_Style_x0020_5" d="M88 72H77V61h-8v11H58v8h11v11h8V80h11z"/><circle class="google_play_games__Graphic_x0020_Style_x0020_5" cx="122" cy="65" r="5"/><circle class="google_play_games__Graphic_x0020_Style_x0020_5" cx="122" cy="87" r="5"/><circle class="google_play_games__Graphic_x0020_Style_x0020_5" cx="133" cy="76" r="5"/><g xmlns="http://www.w3.org/2000/svg"><circle class="google_play_games__Graphic_x0020_Style_x0020_5" cx="111" cy="76" r="5"/></g><path d="M122.32 106.04H84.59l-30.82 31.21c-2.31 2.35-5.5 3.74-9.02 3.74-6.89 0-12.48-5.53-12.73-12.48-.01.18-.02.35-.02.53 0 7.16 5.71 12.95 12.75 12.95 3.52 0 6.71-1.39 9.02-3.74l30.82-31.21h37.73c17.42 0 31.68-14.41 31.68-32.02 0-.17-.01-.33-.01-.5-.27 17.38-14.41 31.52-31.67 31.52z" opacity=".15" fill="#231f20"/><path d="M42.5 68c4.75-16.11 16.77-23.99 30.86-23.99h48.96c14.68 0 27.36 10.24 30.91 23.99-3.19-14.26-15.87-24.99-30.91-24.99H73.36c-14.37 0-26.3 8.21-30.86 24.99z" opacity=".25" fill="#fff"/></g></switch></g></svg>