<svg xmlns="http://www.w3.org/2000/svg"><g xmlns="http://www.w3.org/2000/svg" id="invite_only_mode"><path d="M21,15v-1c0-1.11-0.9-2-2-2c-1.11,0-2,0.9-2,2v1c-0.55,0-1,0.45-1,1v3c0,0.55,0.45,1,1,1h4c0.55,0,1-0.45,1-1v-3 C22,15.45,21.55,15,21,15z M20,15h-2v-1.02c0-0.54,0.45-0.98,1-0.98c0.55,0,1,0.44,1,0.98V15z M6,7c0-2.21,1.79-4,4-4 c2.21,0,4,1.79,4,4s-1.79,4-4,4C7.79,11,6,9.21,6,7z M14.18,20H2v-3c0-2.66,5.33-4,8-4c1.29,0,3.21,0.32,4.84,0.94 C14.33,14.48,14,15.2,14,16v3C14,19.35,14.07,19.69,14.18,20z"/></g></svg>