<svg xmlns="http://www.w3.org/2000/svg"><g xmlns="http://www.w3.org/2000/svg" id="membership_pre_purchase"><path d="M9 4c-4.42 0-8 3.582-8 8s3.58 8 8 8c-2.43-1.824-4-4.73-4-8 0-3.27 1.57-6.176 4-8zm7 4.09c.103.022.204.05.3.08.35.115.65.277.9.488.25.21.447.464.588.762.14.297.212.63.212.997h-1.83c0-.146-.02-.28-.065-.404-.043-.123-.11-.228-.198-.315-.09-.087-.2-.156-.33-.206-.13-.05-.284-.075-.462-.075-.174 0-.328.02-.46.062-.132.04-.243.09-.332.17-.09.07-.156.15-.2.25-.046.09-.07.19-.07.3 0 .12.033.22.098.32.07.09.16.18.28.27.12.08.27.16.44.23.17.07.37.14.58.21.41.13.77.28 1.09.44.32.16.59.34.81.55.22.2.39.44.5.7.12.26.17.55.17.88 0 .35-.06.66-.2.93s-.32.5-.57.68c-.24.19-.54.33-.89.42-.11.03-.22.05-.34.07V18h-2v-2.16c-.11-.032-.22-.07-.33-.113-.23-.092-.45-.21-.66-.35-.2-.14-.38-.31-.52-.505-.14-.196-.26-.42-.35-.67-.08-.248-.12-.526-.12-.833h1.84c0 .22.03.42.09.57.06.15.15.28.26.37.12.09.26.16.42.2.17.04.36.06.58.06.17 0 .32-.02.444-.06.12-.04.224-.1.305-.17.08-.07.14-.15.177-.24.04-.1.06-.19.06-.3 0-.12-.016-.23-.05-.33s-.1-.19-.195-.28c-.1-.09-.235-.18-.41-.26-.18-.09-.41-.18-.694-.28-.334-.11-.657-.24-.967-.38-.31-.15-.585-.31-.826-.51-.24-.2-.434-.43-.578-.69-.143-.26-.215-.57-.215-.92 0-.34.07-.64.22-.91.14-.264.35-.49.61-.68.26-.19.57-.337.93-.44h.01V6h2v2.09zM15 20c4.418 0 8-3.582 8-8s-3.582-8-8-8-8 3.582-8 8 3.582 8 8 8z"/></g></svg>