<svg xmlns="http://www.w3.org/2000/svg"><g xmlns="http://www.w3.org/2000/svg" fill-rule="evenodd" id="members_only_mode"><path d="M9,8 L9,9 L7,9 L7,7.5 L7,7 C7,6.44771525 7.4556644,6 7.99539757,6 L16.0046024,6 C16.5543453,6 17,6.44386482 17,7 L17,8 L9,8 Z M15,12 L7,12 L7,13 C7,13.5561352 7.44565467,14 7.99539757,14 L16.0046024,14 C16.5443356,14 17,13.5522847 17,13 L17,12.5 L17,11 L15,11 L15,12 Z M2,16.0029699 L2,3.99406028 C2,2.89451376 2.89130934,2 3.99079514,2 L20.0092049,2 C21.1017876,2 22,2.8927712 22,3.99406028 L22,16.0059397 C22,17.1054862 21.1086907,18 20.0092049,18 L6,18 L2,22 L2,16.0029699 Z M11,14 L13,14 L13,16 L11,16 L11,14 Z M7,9 L16.0046024,9 C16.5543453,9 17,9.44386482 17,10 L17,11 L7.99539757,11 C7.44565467,11 7,10.5561352 7,10 L7,9 Z M11,4 L13,4 L13,6 L11,6 L11,4 Z"/></g></svg>