<svg xmlns="http://www.w3.org/2000/svg">
    <g id="money_heart" fill-rule="evenodd">
        <path d="M21.8,6.9c-0.2-0.7-0.5-1.4-1.1-2c-0.5-0.6-1.2-1.1-2-1.4C18,3.2,17.2,3,16.3,3c-0.8,0-1.7,0.2-2.4,0.6
          C13.2,3.9,12.5,4.4,12,5c-0.5-0.6-1.2-1.1-1.9-1.5C9.3,3.2,8.5,3,7.7,3C6.8,3,6,3.2,5.2,3.5c-0.8,0.3-1.4,0.8-2,1.4
          c-0.5,0.5-0.9,1.2-1.1,2C0.8,11.9,5.5,18,12,22C18.5,18,23.2,11.9,21.8,6.9z M15,10h-4.5v1.5H14c0.5,0,1,0.5,1,1V15c0,0.5-0.5,1-1,1
          h-1v1.5h-2V16h-1c-0.5,0-1-0.5-1-1v-0.5h4.5V13H10c-0.5,0-1-0.5-1-1V9.5c0-0.5,0.5-1,1-1h1V7h2v1.5h1c0.5,0,1,0.5,1,1V10z"></path>
      </g>
      
</svg>