<svg xmlns="http://www.w3.org/2000/svg"><g xmlns="http://www.w3.org/2000/svg" fill-rule="evenodd" id="money_fill_store"><path d="M22.82 7.48l-1.54-4.61a2 2 0 0 0-1.9-1.37H4.62a2 2 0 0 0-1.9 1.37L1.18 7.48a3.5 3.5 0 0 0 .48 3.13A3.15 3.15 0 0 0 2 11v9.5a2 2 0 0 0 2 2h16a2 2 0 0 0 2-2V11a4.14 4.14 0 0 0 .35-.38 3.5 3.5 0 0 0 .47-3.14zm-1.9.64A1.46 1.46 0 0 1 19.53 10a1.44 1.44 0 0 1-1.44-1.22L18 8l-.8-4.5h2.18zM15.17 3.5l.06.31.77 4.55A1.46 1.46 0 0 1 14.54 10h-.08A1.46 1.46 0 0 1 13 8.58V3.5zM11 3.5v5.08A1.46 1.46 0 0 1 9.53 10h-.08A1.45 1.45 0 0 1 8 8.5l.77-4.67a.86.86 0 0 0 0-.16V3.5zM3.08 8.12L4.62 3.5h2.16L6 8v.16l-.11.65A1.44 1.44 0 0 1 4.47 10a1.46 1.46 0 0 1-1.39-1.88zM15.5 20.49H13v-4.32h2.5zm2 0v-6.32H11v6.32H4V12a3.75 3.75 0 0 0 .47 0A3.43 3.43 0 0 0 7 11a3.45 3.45 0 0 0 2.45 1h.08A3.44 3.44 0 0 0 12 11a3.44 3.44 0 0 0 2.47 1h.08A3.44 3.44 0 0 0 17 11a3.42 3.42 0 0 0 2.53 1 3.75 3.75 0 0 0 .47 0v8.5z"/></g></svg>