<svg xmlns="http://www.w3.org/2000/svg">
    <g id="music_new_release">
        <path fill-rule="evenodd" clip-rule="evenodd" d="M20.56 9.22L23 12l-2.44 2.78.34 3.68-3.61.82-1.89 3.18L12 21l-3.4 1.47-1.89-3.18-3.61-.82.34-3.69L1 12l2.44-2.79-.34-3.68 3.61-.81L8.6 1.54 12 3l3.4-1.46 1.89 3.18 3.61.82-.34 3.68zm-1.81 7.68l-.26-2.79L20.34 12l-1.85-2.11.26-2.79-2.74-.62-1.43-2.41L12 5.18l-2.58-1.1-1.43 2.41-2.74.61.26 2.78L3.66 12l1.85 2.1-.26 2.8 2.74.62 1.43 2.41L12 18.82l2.58 1.11 1.43-2.41 2.74-.62zM12 12.775V7.5h3v2h-2v5a2 2 0 11-2-2c.365 0 .705.105 1 .275z"></path>
      </g>
      
</svg>