<svg xmlns="http://www.w3.org/2000/svg"><g xmlns="http://www.w3.org/2000/svg" id="my_channel"><path d="M12,2 C6.477,2 2,6.477 2,12 C2,17.523 6.477,22 12,22 C17.523,22 22,17.523 22,12 C22,6.477 17.523,2 12,2 L12,2 Z M12,5 C13.656,5 15,6.344 15,8 C15,9.658 13.656,11 12,11 C10.344,11 9,9.658 9,8 C9,6.344 10.344,5 12,5 L12,5 Z M12,19.2 C9.496,19.2 7.293,17.921 6.002,15.98 C6.028,13.993 10.006,12.9 12,12.9 C13.994,12.9 17.972,13.993 17.998,15.98 C16.707,17.921 14.504,19.2 12,19.2 L12,19.2 Z"/></g></svg>