<svg xmlns="http://www.w3.org/2000/svg">
    <g id="notifications_off">
        <path d="M0 0h24v24H0z" fill="none"></path>
        <path d="M12.1,21.5 C11,21.5 10.1,20.6 10.1,19.5 L14.1,19.5 C14.1,20.6 13.2,21.5 12.1,21.5 Z M17.8493827,18.5 L4.1,18.5 L4.1,17.5 L6.1,15.5 L6.1,10.5 C6.1,9.28787069 6.34383266,8.14803693 6.80191317,7.17284768 L4,4.3 L5.3,3 L8.39345122,6.17176644 C8.80987992,6.58774655 9.3,7.1 9.3,7.1 L21.1,19.2 L19.8,20.5 L17.8493827,18.5 Z M8.37723023,8.78804618 C8.20156515,9.32818052 8.1,9.91409026 8.1,10.5 L8.1,16.5 L15.8987654,16.5 L8.37723023,8.78804618 Z M18.1,13.7 L16.1,11.6 L16.1,10.5 C16.1,8 14.6,6 12.1,6 C11.6,6 11.2,6.1 10.8,6.2 L9.3,4.7 C9.7,4.5 10.1,4.3 10.6,4.2 L10.6,3.5 C10.6,2.7 11.3,2 12.1,2 C12.9,2 13.6,2.7 13.6,3.5 L13.6,4.2 C16.5,4.9 18.1,7.4 18.1,10.5 L18.1,13.7 Z"></path>
      </g>
      
</svg>