<svg xmlns="http://www.w3.org/2000/svg"><g xmlns="http://www.w3.org/2000/svg" id="offline_downloading_sixty"><path d="M23 12C23 18.0751 18.0751 23 12 23C5.92487 23 1 18.0751 1 12C1 5.92487 5.92487 1 12 1C18.0751 1 23 5.92487 23 12ZM3.00673 12C3.00673 16.9668 7.03315 20.9933 12 20.9933C16.9668 20.9933 20.9933 16.9668 20.9933 12C20.9933 7.03315 16.9668 3.00673 12 3.00673C7.03315 3.00673 3.00673 7.03315 3.00673 12Z" fill="var(--yt-spec-call-to-action-inverse)"/><path d="M12 1C13.7359 1 15.4472 1.41084 16.9939 2.19893C18.5406 2.98702 19.8788 4.12998 20.8992 5.53436C21.9195 6.93875 22.593 8.56468 22.8646 10.2792C23.1361 11.9938 22.998 13.7482 22.4616 15.3992C21.9252 17.0501 21.0057 18.5507 19.7782 19.7782C18.5507 21.0056 17.0501 21.9252 15.3992 22.4616C13.7482 22.998 11.9938 23.1361 10.2792 22.8646C8.56468 22.593 6.93875 21.9195 5.53437 20.8992L6.71111 19.2795C7.8599 20.1142 9.18991 20.6651 10.5924 20.8872C11.9949 21.1094 13.4301 20.9964 14.7805 20.5576C16.131 20.1188 17.3585 19.3666 18.3625 18.3625C19.3666 17.3585 20.1188 16.131 20.5576 14.7805C20.9964 13.4301 21.1094 11.9949 20.8872 10.5924C20.6651 9.18991 20.1142 7.85989 19.2795 6.71111C18.4449 5.56232 17.3502 4.62738 16.085 3.98272C14.8198 3.33807 13.42 3.002 12 3.002L12 1Z" fill="var(--yt-spec-call-to-action)"/><path d="M17.3596 12.71L11.9996 18.07L6.63965 12.71L8.04965 11.3L10.9996 14.24V6H12.9996V14.24L15.9496 11.29L17.3596 12.71Z" fill="var(--yt-spec-call-to-action)"/></g></svg>