<svg xmlns="http://www.w3.org/2000/svg"><g xmlns="http://www.w3.org/2000/svg" id="offline_downloading_spinner"><rect opacity="0.8" width="24" height="24" rx="12" fill="var(--yt-spec-static-brand-black)"/><path d="M19 12C19 15.866 15.866 19 12 19C8.13401 19 5 15.866 5 12C5 8.13401 8.13401 5 12 5C15.866 5 19 8.13401 19 12ZM6.27701 12C6.27701 15.1607 8.83928 17.723 12 17.723C15.1607 17.723 17.723 15.1607 17.723 12C17.723 8.83928 15.1607 6.27701 12 6.27701C8.83928 6.27701 6.27701 8.83928 6.27701 12Z" fill="var(--yt-spec-static-brand-white)"/><path d="M15 12.8915L12 16L9 12.8915L9.78918 12.0737L11.4403 13.7788V9H12.5597V13.7788L14.2108 12.0679L15 12.8915Z" fill="var(--yt-spec-static-brand-white)"/></g></svg>