<svg xmlns="http://www.w3.org/2000/svg"><g xmlns="http://www.w3.org/2000/svg" id="offline_downloading_zero"><path d="M23 12C23 18.0751 18.0751 23 12 23C5.92487 23 1 18.0751 1 12C1 5.92487 5.92487 1 12 1C18.0751 1 23 5.92487 23 12ZM3.00673 12C3.00673 16.9668 7.03315 20.9933 12 20.9933C16.9668 20.9933 20.9933 16.9668 20.9933 12C20.9933 7.03315 16.9668 3.00673 12 3.00673C7.03315 3.00673 3.00673 7.03315 3.00673 12Z" fill="var(--yt-spec-call-to-action-inverse)"/><path d="M17.3596 12.71L11.9996 18.07L6.63965 12.71L8.04965 11.3L10.9996 14.24V6H12.9996V14.24L15.9496 11.29L17.3596 12.71Z" fill="var(--yt-spec-call-to-action)"/></g></svg>