<svg xmlns="http://www.w3.org/2000/svg"><g xmlns="http://www.w3.org/2000/svg" id="offline_downloading_twenty"><path d="M23 12C23 18.0751 18.0751 23 12 23C5.92487 23 1 18.0751 1 12C1 5.92487 5.92487 1 12 1C18.0751 1 23 5.92487 23 12ZM3.00673 12C3.00673 16.9668 7.03315 20.9933 12 20.9933C16.9668 20.9933 20.9933 16.9668 20.9933 12C20.9933 7.03315 16.9668 3.00673 12 3.00673C7.03315 3.00673 3.00673 7.03315 3.00673 12Z" fill="var(--yt-spec-call-to-action-inverse)"/><path d="M12 1C14.323 1 16.5863 1.7354 18.4656 3.10081C20.345 4.46622 21.7438 6.39154 22.4616 8.60081L20.5576 9.21947C19.9704 7.41228 18.8262 5.83737 17.2889 4.72047C15.7516 3.60356 13.9002 3.002 12 3.002L12 1Z" fill="var(--yt-spec-call-to-action)"/><path d="M17.3596 12.71L11.9996 18.07L6.63965 12.71L8.04965 11.3L10.9996 14.24V6H12.9996V14.24L15.9496 11.29L17.3596 12.71Z" fill="var(--yt-spec-call-to-action)"/></g></svg>