<svg xmlns="http://www.w3.org/2000/svg"><style type="text/css">.prompted_sign_in__st0undefined.prompted_sign_in__st1undefined.prompted_sign_in__st2undefined.prompted_sign_in__st3undefined</style><g xmlns="http://www.w3.org/2000/svg" xmlns:xlink="http://www.w3.org/1999/xlink" x="0px" y="0px" viewBox="0 0 144 144" style="enable-background:new 0 0 144 144;" xml:space="preserve" id="prompted_sign_in"><style>
    .prompted_sign_in__st0{fill:#ffc200;}
    .prompted_sign_in__st1{fill:#d09fff;}
    .prompted_sign_in__st2{fill:#00c1a0;}
    .prompted_sign_in__st3{fill:#005cff;}
  </style><g xmlns="http://www.w3.org/2000/svg"><path class="prompted_sign_in__st0" d="M40.9,78.9l-0.4-0.4c1-1,1.9-4.3,1-7c-0.7-2.1-2.4-3.4-4.8-3.8L36,67.6l0.6-0.4c1.9-1.4,2.7-3.4,2.2-5.4&#10;            c-0.7-2.4-3.2-4.1-6.8-4.4l0.1-0.6c3.8,0.4,6.5,2.2,7.3,4.9c0.6,2-0.2,4.1-1.9,5.6c3,0.7,4.2,2.6,4.7,4.1&#10;            C43,74.3,42,77.8,40.9,78.9z"/><rect x="34.1" y="37.4" transform="matrix(0.3627 -0.9319 0.9319 0.3627 -22.2932 62.2217)" class="prompted_sign_in__st1" width="0.6" height="20.1"/><rect x="42.4" y="82.9" transform="matrix(0.7149 -0.6993 0.6993 0.7149 -44.7921 56.6335)" class="prompted_sign_in__st2" width="9.4" height="0.6"/><rect x="108.2" y="75.1" transform="matrix(0.5358 -0.8444 0.8444 0.5358 -23.5341 132.2362)" class="prompted_sign_in__st2" width="0.6" height="24.8"/><rect x="95.2" y="32.8" transform="matrix(0.7409 -0.6716 0.6716 0.7409 5.501 80.3848)" class="prompted_sign_in__st1" width="23.5" height="0.6"/><rect x="101" y="44" transform="matrix(0.878 -0.4786 0.4786 0.878 -8.3787 55.7619)" class="prompted_sign_in__st0" width="8.4" height="0.6"/><rect x="65.8" y="19.9" transform="matrix(0.9702 -0.2422 0.2422 0.9702 -4.3774 16.7857)" class="prompted_sign_in__st2" width="0.6" height="12.6"/><path class="prompted_sign_in__st1" d="M113.2,79.4c-1.2-1.6-2.2-1.4-3.2-1.2c-0.9,0.2-1.8,0.3-2.5-1.3c-0.6-1.6-1.6-1.5-3.5-1.2&#10;            c-1.1,0.1-2.4,0.3-4.1,0.2l0.1-0.6c1.6,0.2,2.9,0,3.9-0.1c1.8-0.3,3.3-0.5,4.1,1.6c0.5,1.2,1,1.1,1.8,0.9c1-0.2,2.3-0.4,3.8,1.4&#10;            L113.2,79.4z"/><path class="prompted_sign_in__st3" d="M73.7,36.9c-13.7,0-23.5,9.6-24.5,21.7c-0.1,0.7,3.2,14.4,6.3,17.5c2.6,2.7,4.9,4,4.9,4l-11.2,29.3l-2.6,11.4&#10;            l6.9,2.1h48l-8.3-22.6l-2.4-2.8l0.2-3.1l-1.5-4.1l-6.3-11l8.7-4.5c1.2-1.4,2.4-3,3.4-5L97.4,56c-0.5-2.8-1.5-5.8-3.3-8.5L76.2,37&#10;            C75.4,37,74.5,36.9,73.7,36.9z"/><g xmlns="http://www.w3.org/2000/svg"><path class="prompted_sign_in__st0" d="M97.4,56c-2.2,1.5-3.9,4.1-4.3,6.8c-0.4,2.7,0.5,5.3,2.1,7c1.4-2.9,2.4-6.4,2.4-10.7&#10;              C97.7,58.2,97.6,57.1,97.4,56z"/></g><path class="prompted_sign_in__st2" d="M71.6,49.9c7.9-4.6,8-3.4,8.5,6.4c2.8-7.3,5.8-8.8,9.6-1.8c-0.2-3.6,0.9-6.2,4.4-7.1&#10;            c-3.4-5.3-9.2-9.8-17.9-10.5c-1.1,1.3-3.2,2.5-6.2,2.4C76.9,42.4,76.8,44.8,71.6,49.9z"/><path class="prompted_sign_in__st2" d="M62.7,68.7c-1.3-4.9-6.6-3.1-6.6-3.1s5.4-3.2,2.8-7.3c-2.2-3.5-6.8-2.7-9.6,0.4c-0.1,0.7-0.1,1.4-0.1,2.1&#10;            c0,7.2,3.3,12.3,6.3,15.5C59,75.8,63.9,73.1,62.7,68.7z"/><g xmlns="http://www.w3.org/2000/svg"><path class="prompted_sign_in__st0" d="M93.2,100.4L91,94.5c-2,0.3-3.3,1.5-3.3,3.6C87.7,100.8,91,101.1,93.2,100.4z"/></g><g xmlns="http://www.w3.org/2000/svg"><rect x="61.6" y="96.6" transform="matrix(0.8899 -0.4562 0.4562 0.8899 -40.2344 39.5879)" class="prompted_sign_in__st0" width="0.6" height="13.1"/><rect x="63.1" y="94.8" transform="matrix(0.1617 -0.9868 0.9868 0.1617 -47.4622 148.1004)" class="prompted_sign_in__st0" width="0.6" height="14.3"/><rect x="54.9" y="100.5" transform="matrix(0.7934 -0.6087 0.6087 0.7934 -48.5428 58.5709)" class="prompted_sign_in__st0" width="14.2" height="0.6"/><rect x="54.5" y="102.1" transform="matrix(0.2324 -0.9726 0.9726 0.2324 -52.8566 137.7879)" class="prompted_sign_in__st0" width="12.8" height="0.6"/></g><path class="prompted_sign_in__st1" d="M71.8,67.5c-0.5,0-1-0.1-1.5-0.4c-0.7-0.4-1.3-1.1-1.5-1.9c-0.2-0.8-0.2-1.7,0.2-2.4h0c0.8-1.5,2.6-2,4.3-1.3&#10;            c0.8,0.3,1.4,0.9,1.6,1.7c0.3,0.8,0.2,1.8-0.3,2.6c-0.4,0.7-1.1,1.3-1.9,1.5C72.4,67.5,72.1,67.5,71.8,67.5z M71.8,61.8&#10;            c-1,0-1.8,0.5-2.3,1.3h0c-0.3,0.6-0.4,1.3-0.2,2c0.2,0.7,0.6,1.2,1.3,1.5c0.6,0.3,1.3,0.4,2,0.2c0.7-0.2,1.2-0.6,1.5-1.3&#10;            c0.4-0.7,0.5-1.5,0.2-2.2c-0.2-0.6-0.6-1-1.3-1.3C72.6,61.9,72.2,61.8,71.8,61.8z"/><g xmlns="http://www.w3.org/2000/svg"><path class="prompted_sign_in__st0" d="M55.2,44.8l3.9,2.6V53l2.9-3.6l3.3,1.9l-1.4-3.4l2.6-1.6l-4.3-1l-2-4.6c-0.3,0.2-0.5,0.3-0.7,0.5v3.9&#10;              l-4.1-0.4C55.3,44.6,55.2,44.7,55.2,44.8z"/></g><g xmlns="http://www.w3.org/2000/svg"><path class="prompted_sign_in__st2" d="M99.9,118.4C99.9,118.4,99.9,118.4,99.9,118.4C99.9,118.4,99.9,118.4,99.9,118.4&#10;              C99.9,118.4,99.9,118.4,99.9,118.4C99.9,118.4,99.9,118.4,99.9,118.4z"/><path class="prompted_sign_in__st2" d="M74.9,118.8C74.9,118.8,74.9,118.8,74.9,118.8C74.9,118.8,74.9,118.8,74.9,118.8&#10;              C74.9,118.8,74.9,118.8,74.9,118.8C74.9,118.8,74.9,118.8,74.9,118.8z"/><path class="prompted_sign_in__st2" d="M81.8,121.2c1.4-0.6,2.8-1.3,4.3-1.8c1.7-0.7,3.5-1.3,5.3-2c2.4-0.8,4.8-1.6,7.2-2.4l-0.1-0.3&#10;              c-0.8,0.3-1.6,0.5-2.4,0.8c-1.4,0.5-2.8,1-4.3,1.5c-1.1,0.4-2.1,0.8-3.1,1.2c-1,0.4-2.1,0.8-3.1,1.2c-0.4,0.2-0.7,0.4-1.1,0.6&#10;              c-0.8,0.4-1.6,0.7-2.4,1.1c-0.6,0.3-1.2,0.5-1.8,0.7c-0.2,0.1-0.3,0.2-0.5,0.2c0.2-0.3,0.6-0.3,0.8-0.4c0.3-0.2,0.6-0.3,0.9-0.4&#10;              c0.3-0.1,0.6-0.3,0.9-0.4c0.3-0.1,0.6-0.3,0.9-0.4c-0.1,0-0.1,0-0.2,0l0,0c-0.2,0.2-0.4,0.2-0.7,0.3c-0.3,0.2-0.6,0.3-0.9,0.4&#10;              c-0.1,0-0.2,0.1-0.3,0.1c0,0,0,0,0-0.1c0.3-0.1,0.6-0.3,1-0.5c-0.1,0-0.2,0-0.3,0c-0.1-0.1-0.1-0.1-0.2,0&#10;              c-0.3,0.2-0.7,0.3-1.1,0.4c0,0,0,0-0.1,0c-0.4,0.3-0.9,0.4-1.4,0.6c-0.5,0.2-0.9,0.4-1.4,0.6c-0.2,0.1-0.3,0.1-0.5,0.1&#10;              c0,0,0,0,0,0c0,0,0,0,0,0c-0.1,0.1-0.1,0.1-0.2,0.2c0-0.2,0.1-0.2,0.2-0.2c0,0,0,0,0,0c0,0,0,0,0,0c0.4-0.2,0.9-0.5,1.3-0.7&#10;              c1.3-0.5,2.5-1.1,3.8-1.6c2.2-0.9,4.5-1.8,6.8-2.6c2.9-1,5.8-2,8.8-2.9c0.1,0,0.2-0.1,0.4-0.1l-0.1-0.1c-0.2,0.1-0.4,0.1-0.6,0.2&#10;              c-0.1,0-0.2,0-0.3,0c0,0,0,0,0,0c0,0,0,0,0,0c0,0-0.1,0.1-0.1,0.1c-0.9,0.3-1.9,0.6-2.8,0.9c0,0,0,0-0.1,0c1.1-0.4,2.1-0.7,3.1-1&#10;              c0,0,0,0,0,0c0,0,0,0,0,0c0.3-0.1,0.6-0.2,0.8-0.3c0,0,0,0,0,0l-0.1-0.2c-0.5,0.2-1,0.3-1.5,0.5c-0.9,0.3-1.8,0.6-2.8,0.9&#10;              c-0.8,0.3-1.6,0.6-2.3,0.8c-0.1,0.1-0.3,0.1-0.4,0c0,0,0,0,0,0c0,0,0,0-0.1,0c-0.1,0-0.2,0.1-0.3,0.1c0,0,0,0,0-0.1&#10;              c0.1,0,0.2,0,0.3,0c0,0,0,0,0.1,0c0,0,0,0,0,0c0.2-0.1,0.4-0.2,0.6-0.3c0.7-0.3,1.5-0.5,2.2-0.7c1.1-0.4,2.2-0.7,3.3-1.1&#10;              c0.3-0.1,0.6-0.2,0.9-0.3l-0.1-0.4c-1.1,0.3-2.1,0.7-3.2,1c-1.5,0.5-2.9,1-4.4,1.6c-1.2,0.4-2.5,0.9-3.7,1.4&#10;              c-1.7,0.7-3.4,1.4-5.1,2.1c-1.5,0.6-2.9,1.3-4.4,1.9c-0.5,0.2-0.9,0.4-1.4,0.6c0,0,0,0,0,0c0,0,0,0,0,0c-0.2,0.1-0.3,0.2-0.5,0.3&#10;              c0.2-0.2,0.2-0.2,0.5-0.3c0,0,0,0,0,0c0,0,0,0,0,0c0.1-0.1,0.2-0.2,0.3-0.2c0.8-0.4,1.7-0.8,2.5-1.2c0.5-0.2,0.9-0.5,1.4-0.7&#10;              c0.8-0.3,1.5-0.7,2.3-1c0.9-0.4,1.9-0.8,2.8-1.1c2.1-0.8,4.1-1.6,6.2-2.3c1.4-0.5,2.8-1,4.2-1.4c0.8-0.3,1.6-0.5,2.5-0.8l-0.9-2.4&#10;              c0,0-0.1,0-0.1,0c-0.2-0.1-0.4,0.1-0.6,0.1c-0.1,0-0.2,0-0.3,0.1c-0.2,0.2-0.5,0.2-0.8,0.3c-0.3,0.1-0.4,0-0.4-0.3&#10;              c-0.2-0.1-0.4,0.1-0.6-0.1c-0.2,0.1-0.4,0-0.5,0c0,0-0.1,0-0.1,0.1c-0.1,0-0.1,0.1-0.2,0.1c-0.1,0-0.2,0.1-0.2,0.1&#10;              c0.1,0.4,0,0.4-0.3,0.7c0,0-0.1-0.1-0.1-0.1c0.1-0.1,0.3,0,0.3-0.2c-0.3,0-0.6,0.2-0.9,0c0,0.1-0.1,0.1-0.1,0.2&#10;              c-0.2-0.1-0.3-0.2-0.5-0.2c-0.2,0-0.4,0.2-0.6,0.3c0.2,0.1,0.4,0.2,0.5,0.2c0,0.1-0.1,0.1-0.1,0.2c0,0.1-0.1,0.1-0.1,0.1&#10;              c0,0.2-0.1,0.2-0.3,0.3c-0.4,0.1-0.8,0.3-1.2,0.4c-0.1-0.1-0.2-0.2-0.1-0.3c0.1-0.3-0.2-0.3-0.3-0.5c-0.1,0.2-0.2,0.3-0.3,0.5&#10;              c-0.1-0.1-0.1-0.1-0.2-0.2c0,0,0,0,0,0c-0.1-0.1-0.2-0.1-0.4,0c-0.2,0.1-0.3,0.1-0.5,0.2c0,0.3-0.1,0.5-0.5,0.5c0,0,0-0.1,0-0.1&#10;              c-0.1-0.1-0.2-0.1-0.3-0.2c-0.1,0-0.2,0-0.2,0c-0.1,0.1-0.2,0.2-0.4,0.3c-0.1,0-0.2,0.2-0.4,0c0,0-0.1,0-0.2,0.1&#10;              c-0.1,0.1-0.1,0.1-0.2,0.2c0,0,0.1,0,0.1,0.1c0,0,0,0,0.1,0.1c-0.8-0.3-1.3,0.3-1.8,0.6c0,0-0.1-0.1-0.2-0.1&#10;              c-0.1,0-0.1,0.1-0.2,0.1c0,0.1,0,0.1,0.1,0.2c-0.2-0.1-0.3-0.2-0.5-0.3c-0.1,0.1-0.2,0.2-0.2,0.3c0,0,0,0,0,0&#10;              c0.1,0,0.2-0.1,0.4-0.2c0,0.1-0.1,0.2-0.1,0.2c-0.2,0-0.4,0.4-0.6,0.3c-0.3,0.2-0.7,0.3-1.1,0.5c-0.4,0.2-0.9,0.4-1.3,0.6&#10;              c-0.2,0.1-0.4,0.2-0.6,0.3c-0.2,0.1-0.4,0.2-0.6,0.3c-0.1,0.1-0.2,0.1-0.3,0.1c0,0,0-0.1-0.1-0.1c0.1-0.1,0.1-0.1,0.2-0.2&#10;              c0.1-0.1,0.1-0.1,0.2-0.2c0.1-0.1,0.2-0.2,0.3-0.2c0.6-0.3,1.1-0.5,1.7-0.8c0.1,0,0.2-0.1,0.3-0.2c-0.1,0-0.2,0.1-0.2,0&#10;              c-0.1-0.1-0.2-0.1-0.3,0c-0.6,0.2-1.2,0.4-1.7,0.6c-1.3,0.6-2.6,1.3-3.9,1.9c-1.1,0.6-2.2,1.2-3.3,1.8c-0.1,0-0.1,0.1-0.2,0.1&#10;              c0.1-0.1,0.1-0.2,0.2-0.2c0.3-0.2,0.7-0.4,1-0.6c0.5-0.3,0.9-0.6,1.4-0.8c-0.1,0-0.1,0-0.2,0c0,0,0,0,0,0c0.1,0,0.1-0.1,0.2-0.1&#10;              c0,0,0,0.1,0.1,0.1c0-0.2,0.2-0.3,0.4-0.4c1-0.6,2.1-1.1,3.1-1.7c0.1-0.1,0.3-0.2,0.4-0.2c-0.1,0-0.2,0-0.3,0c0,0,0-0.1,0-0.1&#10;              c-0.3,0.1-0.6,0.3-0.8,0.4c-1.3,0.7-2.6,1.4-3.9,2.1c-0.1,0-0.1,0-0.2,0.1c0.9-0.6,1.9-1.2,2.9-1.8c1-0.6,2-1.1,3-1.6&#10;              c-2,0.9-4,1.9-6,2.9c0,0,0-0.1,0-0.1c1.8-1,3.7-1.9,5.5-2.9c-0.1-0.1-0.2-0.1-0.3-0.1c0.2-0.3,0.7-0.3,0.9-0.6&#10;              c-0.2,0.1-0.4,0.1-0.6,0.2c-0.1,0-0.2,0.1-0.2,0c-0.1-0.2-0.2,0-0.3,0c-0.5,0.3-1.1,0.5-1.6,0.8c-1.1,0.6-2.2,1.1-3.3,1.7&#10;              c-0.7,0.4-1.4,0.7-2.1,1.1c-0.3,0.2-0.7,0.3-1,0.5c-0.7,0.4-1.5,0.8-2.2,1.2c-0.2,0.1-0.4,0.2-0.5,0.3c0-0.1,0.1-0.1,0.1-0.1&#10;              c1.4-0.8,2.8-1.6,4.2-2.4c0.9-0.5,1.9-1,2.8-1.6c0.1-0.1,0.2-0.1,0.3-0.3c-1.9,0.9-3.7,1.9-5.6,2.9c0.1-0.1,0.2-0.2,0.3-0.2&#10;              c1.3-0.7,2.6-1.4,3.9-2.2c0.9-0.5,1.7-0.9,2.6-1.4c0.3-0.2,0.5-0.4,0.7-0.5c0.4-0.2,0.8-0.4,1.2-0.6c0.2-0.1,0.4-0.2,0.6-0.3&#10;              c0,0,0,0,0-0.1c-0.1,0-0.1,0-0.2,0c0,0,0,0,0-0.1c0.7-0.3,1.4-0.7,2.1-1c-0.1,0-0.1,0-0.1,0c-1.2,0.4-2.4,1-3.5,1.6&#10;              c-0.7,0.4-1.4,0.8-2.1,1.2c-0.5,0.3-1.1,0.5-1.6,0.8c-1.5,0.8-3.1,1.6-4.6,2.4c-0.2,0.1-0.4,0.2-0.6,0.3c0,0,0,0,0-0.1&#10;              c0.5-0.3,1.1-0.7,1.6-1c0.6-0.3,1.1-0.6,1.7-0.9c0.1-0.1,0.3-0.1,0.3-0.2c0-0.3,0.2-0.3,0.3-0.4c0.3-0.2,0.5-0.3,0.8-0.5&#10;              c1.1-0.6,2.1-1.2,3.2-1.8c0.3-0.2,0.7-0.3,1-0.5c-0.1,0-0.1,0-0.2,0c-0.4,0.2-0.7,0.3-1.1,0.5c-1.6,0.9-3.3,1.8-4.9,2.6&#10;              c-0.4,0.2-0.8,0.5-1.2,0.7c-0.1,0.1-0.2,0.1-0.3,0.2c0,0,0,0,0-0.1c0.1,0,0.1-0.1,0.2-0.1c0.6-0.5,1.3-0.9,2-1.2&#10;              c1.5-0.8,3.1-1.6,4.7-2.4c0.3-0.1,0.5-0.3,0.8-0.5c-0.1,0-0.2,0.1-0.4,0.1c-0.1,0-0.2,0.1-0.3,0.1c-0.1,0-0.2,0-0.3,0.1&#10;              c-0.7,0.4-1.5,0.8-2.2,1.1c-0.1,0-0.2,0.1-0.2,0.1c0,0,0,0,0-0.1c0.3-0.3,0.7-0.4,1.1-0.6c0.4-0.2,0.8-0.4,1.1-0.6c0,0,0,0,0-0.1&#10;              c-2.5,1.2-4.8,2.6-7.4,3.8c0.3-0.2,0.6-0.4,0.9-0.6c0,0,0,0,0,0c-0.2,0.1-0.3,0.1-0.5,0.2c0,0,0,0,0,0c0,0,0,0,0,0&#10;              c-0.1,0.1-0.2,0.1-0.3,0.1c0,0,0,0,0,0c0,0,0,0,0,0c0,0.2-0.2,0.2-0.3,0.2c0-0.1,0.2-0.2,0.3-0.2c0,0,0,0,0,0c0,0,0,0,0,0&#10;              c0.1,0,0.2-0.1,0.3-0.1c0,0,0,0,0,0c0,0,0,0,0,0c0.1-0.1,0.2-0.2,0.3-0.3c1.3-0.7,2.6-1.4,3.9-2.1c0.4-0.2,0.7-0.4,1.1-0.6&#10;              c0.1,0,0.1-0.1,0-0.1c-0.1,0-0.1,0.1-0.2,0.1c-0.1,0.1-0.3,0.1-0.4,0.1c0,0,0,0,0,0c0,0,0,0,0,0c-0.1,0.3-0.3,0.3-0.6,0.4&#10;              c0.1-0.2,0.1-0.2,0.6-0.4c0,0,0,0,0,0c0,0,0,0,0,0c0.1-0.1,0.2-0.1,0.3-0.2c0.1,0,0.2,0,0.3,0c0-0.1,0.1-0.2,0.2-0.2&#10;              c0.3-0.2,0.6-0.3,0.9-0.5c0.6-0.3,1.1-0.6,1.6-1c0.1,0,0.1-0.1,0.1-0.1c0,0,0,0,0-0.1c-0.7,0.4-1.5,0.7-2.2,1.1&#10;              c0-0.1,0.1-0.1,0.2-0.2c1-0.5,2-1.1,3-1.6c0.2-0.1,0.3-0.2,0.4-0.3c0,0,0,0,0-0.1c-0.2,0.1-0.4,0.2-0.6,0.3&#10;              c-0.5,0.2-0.9,0.4-1.4,0.6c-1.3,0.7-2.7,1.4-4,2.2c-0.4,0.2-0.9,0.5-1.3,0.8c0,0,0,0,0,0c0,0,0,0,0,0c-0.2,0.1-0.3,0.2-0.5,0.3&#10;              c0,0,0,0,0,0c0,0,0,0,0,0c-0.1,0.1-0.2,0.1-0.4,0.2c0,0,0,0,0,0c0,0,0,0,0,0c-0.1,0.1-0.2,0.2-0.3,0.2c0.1-0.2,0.1-0.2,0.3-0.2&#10;              c0,0,0,0,0,0c0,0,0,0,0,0c0.1-0.2,0.2-0.2,0.4-0.2c0,0,0,0,0,0c0,0,0,0,0,0c0.1-0.2,0.2-0.3,0.5-0.3c0,0,0,0,0,0c0,0,0,0,0,0&#10;              c0-0.1,0.3-0.5,0.4-0.6c0.8-0.4,1.6-0.9,2.4-1.3c0.1-0.1,0.3-0.2,0.3-0.3c0-0.1,0.1-0.3,0.3-0.3c0.3-0.1,0.4-0.4,0.8-0.3&#10;              c0.3-0.1,0.5-0.2,0.8-0.4c0.1-0.1,0-0.1-0.1-0.1c0,0,0,0,0,0c0,0,0,0,0,0c-0.1,0.1-0.2,0.2-0.3,0.2c0,0,0,0,0-0.1&#10;              c0.1-0.1,0.2-0.2,0.4-0.2c0,0,0,0,0,0c0,0,0,0,0,0c0,0,0.1-0.1,0.1-0.1c0.2,0.1,0.3-0.2,0.5-0.2c0-0.2,0.2-0.2,0.4-0.3&#10;              c0.2-0.1,0.3-0.2,0.5-0.3c0,0,0.1-0.1,0.1-0.1c0-0.2,0.2-0.3,0.3-0.3c1.5-0.7,3.1-1.4,4.6-2.1c0.2-0.1,0.4-0.2,0.6-0.3&#10;              c0,0,0,0,0-0.1c-0.1,0-0.1,0-0.2,0c-0.3,0.1-0.5,0.2-0.8,0.3c-0.4,0.1-0.7,0.3-1.1,0.4c-0.2,0.1-0.4,0.1-0.6,0.2&#10;              c-1.1,0.5-2.2,1-3.3,1.6c-0.5,0.3-1.1,0.5-1.6,0.8c-0.5,0.3-1.1,0.5-1.6,0.8c-0.5,0.3-1.1,0.5-1.6,0.9c-0.4,0.2-0.8,0.4-1.1,0.7&#10;              c-0.6,0.4-1.2,0.8-1.8,1.3c0,0-0.1,0.1-0.1,0.2c0.1,0,0.1,0,0.3,0c-0.1,0.1-0.2,0.1-0.2,0.1c-0.8,0.5-1.7,0.9-2.4,1.6&#10;              c-0.4,0.4-0.9,0.8-1.3,1.2c-0.3,0.3-0.5,0.6-0.8,0.9c-0.4,0.4-0.6,0.8-1,1.2c-0.1,0.1-0.1,0.3-0.2,0.4c-0.2,0.3-0.4,0.5-0.5,0.8&#10;              c-0.2,0-0.4,0.1-0.6,0.1c0,0,0-0.1,0-0.2c0-0.1,0-0.1,0.1-0.2c-0.3-0.1-0.4,0-0.3,0.3c0,0.1,0.1,0.3,0,0.4&#10;              c-0.1-0.1-0.2-0.2-0.3-0.3c-0.1,0.1-0.2,0.2-0.2,0.3c0,0.3,0.3,0.2,0.5,0.3c0,0.1,0,0.2,0,0.3c0.2,0,0.3,0.1,0.2,0.3&#10;              c0,0.2-0.2,0.2-0.3,0.2c0-0.1,0.1-0.3-0.1-0.4c-0.1-0.2-0.2-0.4-0.3-0.5c-0.1-0.1-0.1-0.2-0.2-0.2c-0.1,0.1-0.1,0.3-0.2,0.3&#10;              c-0.1,0-0.2,0-0.3,0c0,0.1,0.1,0.2,0.1,0.3c-0.1,0-0.1,0.1-0.1,0.1c-0.1,0.4-0.4,0.6-0.5,0.9c-0.1,0.3-0.1,0.6-0.1,1h18.3&#10;              C79.2,122.4,80.5,121.8,81.8,121.2z M80.2,121.3C80.2,121.3,80.2,121.4,80.2,121.3c0,0.1-0.1,0.1-0.1,0.1c0,0,0,0,0-0.1&#10;              C80.1,121.4,80.1,121.3,80.2,121.3z M93.3,115.7C93.4,115.7,93.4,115.7,93.3,115.7c-0.3,0.2-0.6,0.3-1,0.4c0,0,0,0,0,0&#10;              C92.7,115.9,93,115.8,93.3,115.7z M91.7,116.2C91.7,116.3,91.8,116.3,91.7,116.2c-0.1,0.1-0.2,0.1-0.3,0.2c0,0,0,0,0-0.1&#10;              C91.5,116.3,91.6,116.3,91.7,116.2z M89.6,116.6c0.1,0,0.3,0,0.4,0c0.1-0.2,0.3-0.2,0.5-0.2c0.1,0,0.1,0,0.2,0c0.1,0,0.1,0,0.2,0&#10;              c0,0,0,0,0,0.1c-0.1,0-0.2,0.1-0.3,0.1l0,0c-0.4,0.2-0.8,0.3-1.2,0.5c0,0,0,0,0-0.1C89.4,116.8,89.4,116.6,89.6,116.6z&#10;               M78.4,121.3c1.2-0.5,2.4-1.1,3.6-1.6c0.5-0.2,1-0.4,1.4-0.5c0.6-0.3,1.3-0.5,1.9-0.8c0.7-0.3,1.3-0.5,2-0.8&#10;              c0.1,0,0.2-0.1,0.2-0.1c0,0,0,0-0.1-0.1c0.1,0,0.1-0.1,0.2-0.1c0,0,0,0,0,0c0,0-0.1,0.1-0.1,0.1c0.3-0.1,0.5-0.2,0.8-0.3&#10;              c0.1,0,0.2-0.2,0.3-0.2c0,0.2,0.2,0.1,0.3,0.1c-1,0.4-1.9,0.8-2.9,1.2c-0.1,0-2.7,1.1-2.9,1.2c-1,0.4-2,0.8-2.9,1.2&#10;              c-1,0.4-1.9,0.8-2.9,1.1C77.6,121.6,78,121.4,78.4,121.3z M93.7,111C93.7,111.1,93.8,111.1,93.7,111c0.1,0.1,0.2,0.2,0.2,0.4&#10;              c-0.1,0-0.2-0.1-0.3-0.2C93.6,111.2,93.7,111.1,93.7,111z M88.1,112.8c0.1,0.1,0.3,0.2,0.4,0.3c0,0,0,0,0,0c0,0,0,0,0,0&#10;              c0.1,0,0.2-0.2,0.3-0.1c0.1,0,0.1-0.1,0.2-0.2c0.2,0.1,0.2,0.2,0.1,0.4c-0.2,0-0.4,0-0.7,0.1c0-0.1,0-0.1,0-0.2c0,0,0,0,0,0&#10;              c0,0,0,0,0,0c-0.1,0-0.3,0-0.4,0C88.1,113,88.1,112.9,88.1,112.8z M85.3,114.5c0,0.2-0.1,0.2-0.2,0.1&#10;              C85.2,114.6,85.2,114.6,85.3,114.5z M78.6,117.1c-0.1,0.1-0.3,0.1-0.4,0.3C78.3,117.1,78.4,117,78.6,117.1z M75.9,118.2&#10;              C76,118.2,76,118.3,75.9,118.2c-0.1,0.1-0.2,0.2-0.3,0.2c0,0,0,0,0-0.1C75.7,118.3,75.8,118.3,75.9,118.2z M77.3,115.2&#10;              C77.3,115.2,77.3,115.2,77.3,115.2C77.3,115.2,77.3,115.2,77.3,115.2c0.2-0.1,0.3-0.3,0.5-0.4c0,0.1,0.1,0.2,0.1,0.3&#10;              C77.9,115.1,77.6,115.2,77.3,115.2C77.3,115.2,77.3,115.2,77.3,115.2C77.3,115.2,77.3,115.2,77.3,115.2c0.1,0.2-0.1,0.2-0.2,0.2&#10;              C77.2,115.3,77.1,115.1,77.3,115.2z M75.9,115.9C75.9,115.9,75.9,115.9,75.9,115.9c0,0.1,0,0.1,0,0.2c0,0,0,0-0.1,0&#10;              C75.8,116,75.8,115.9,75.9,115.9z M74.9,116.4C74.9,116.4,74.9,116.5,74.9,116.4c0,0.1-0.1,0.1-0.1,0.1c0,0,0,0,0,0&#10;              C74.8,116.5,74.9,116.5,74.9,116.4z M73.1,118.4C73.1,118.4,73.1,118.4,73.1,118.4c0,0.1-0.1,0.1-0.2,0.2c0,0,0,0,0-0.1&#10;              C72.9,118.5,73,118.4,73.1,118.4z M73.3,115.7C73.3,115.7,73.3,115.7,73.3,115.7c0,0.1-0.1,0.1-0.2,0.2c0,0,0,0,0,0&#10;              C73.2,115.8,73.2,115.8,73.3,115.7z M72.8,114.3c0,0,0.1,0,0.1-0.1c0,0,0,0,0,0c-0.1,0.1-0.2,0.1-0.2,0.2c0,0,0,0,0,0&#10;              C72.7,114.3,72.7,114.3,72.8,114.3z M70.8,114.2C70.8,114.2,70.8,114.3,70.8,114.2c-0.1,0.1-0.1,0.1-0.2,0.2c0,0,0,0,0-0.1&#10;              C70.6,114.3,70.7,114.2,70.8,114.2z M70.1,114.5C70.1,114.5,70.2,114.6,70.1,114.5c0,0.1-0.1,0.1-0.2,0.2c0,0,0,0,0-0.1&#10;              C70,114.6,70.1,114.6,70.1,114.5z M69.5,114.9C69.5,114.9,69.5,114.9,69.5,114.9c0,0.1-0.1,0.1-0.2,0.2c0,0,0,0,0,0&#10;              C69.4,115,69.4,114.9,69.5,114.9z M69.6,113.5C69.6,113.5,69.6,113.5,69.6,113.5C69.6,113.5,69.6,113.5,69.6,113.5&#10;              c0.1-0.1,0.1-0.1,0.1-0.2c0,0,0,0,0.1,0.1C69.7,113.5,69.7,113.5,69.6,113.5C69.6,113.5,69.6,113.5,69.6,113.5&#10;              C69.6,113.5,69.6,113.5,69.6,113.5c-0.2,0.1-0.3,0.2-0.5,0.4C69.2,113.6,69.3,113.6,69.6,113.5z M62,121.1c-0.2,0-0.2-0.3-0.3-0.4&#10;              C62,120.7,62.1,120.9,62,121.1z M62.1,120.6c0,0,0-0.1,0-0.1c0,0,0,0,0.1,0C62.2,120.5,62.2,120.5,62.1,120.6&#10;              C62.2,120.6,62.2,120.6,62.1,120.6z M72.1,120.3C72.1,120.3,72.1,120.3,72.1,120.3c0-0.1,0.1-0.1,0.2-0.2c0,0,0,0,0,0&#10;              C72.2,120.2,72.2,120.3,72.1,120.3z M72.8,119.9C72.8,119.9,72.8,119.9,72.8,119.9c0.1-0.1,0.1-0.1,0.2-0.2c0,0,0,0,0,0.1&#10;              C73,119.8,72.9,119.9,72.8,119.9z M73.6,119.5C73.6,119.5,73.6,119.4,73.6,119.5c0.2-0.2,0.5-0.3,0.7-0.5c0,0,0,0,0,0.1&#10;              C74.1,119.2,73.9,119.3,73.6,119.5z M74.9,118.8C74.9,118.8,74.9,118.8,74.9,118.8C74.9,118.8,74.9,118.8,74.9,118.8&#10;              c0.1-0.1,0.2-0.2,0.3-0.3c0,0,0,0.1,0.1,0.1C75.1,118.7,75,118.7,74.9,118.8C74.9,118.8,74.9,118.8,74.9,118.8&#10;              C74.9,118.8,74.9,118.8,74.9,118.8c-0.1,0-0.1,0.1-0.2,0.1C74.7,118.8,74.8,118.8,74.9,118.8z M74.8,122.4&#10;              C74.8,122.4,74.8,122.4,74.8,122.4c0-0.1,0.1-0.1,0.1-0.1c0,0,0,0,0,0.1C74.9,122.3,74.9,122.4,74.8,122.4z M79.5,122&#10;              c-0.7,0.3-1.3,0.6-2,0.9C77.7,122.7,79,122.1,79.5,122z"/><path class="prompted_sign_in__st2" d="M69.6,113.5C69.6,113.5,69.6,113.5,69.6,113.5C69.6,113.5,69.6,113.5,69.6,113.5&#10;              C69.6,113.5,69.6,113.5,69.6,113.5C69.6,113.5,69.6,113.5,69.6,113.5z"/><path class="prompted_sign_in__st2" d="M88.5,113.1C88.5,113.1,88.5,113.1,88.5,113.1C88.5,113.1,88.5,113.1,88.5,113.1&#10;              C88.5,113.1,88.5,113.1,88.5,113.1C88.5,113.1,88.5,113.1,88.5,113.1z"/><path class="prompted_sign_in__st2" d="M77.3,115.2C77.3,115.2,77.3,115.2,77.3,115.2C77.3,115.2,77.3,115.2,77.3,115.2&#10;              C77.3,115.2,77.3,115.2,77.3,115.2C77.3,115.2,77.3,115.2,77.3,115.2z"/><path class="prompted_sign_in__st2" d="M91.7,123c0.2-0.1,0.4-0.1,0.7-0.2c0,0.1-0.1,0.2-0.2,0.2h9.3l-1.7-4.6c-0.2,0.1-0.4,0.1-0.7,0.2&#10;              c0.2-0.1,0.4-0.2,0.6-0.2l-0.1-0.3c-4.7,1.5-9.3,3.1-13.9,4.9H91.7z M98.7,118.7C98.7,118.7,98.7,118.7,98.7,118.7&#10;              c-0.1,0.1-0.2,0.1-0.2,0.1c0,0,0,0,0,0C98.5,118.7,98.6,118.7,98.7,118.7z M98,118.9C98,118.9,98,118.9,98,118.9&#10;              c-0.1,0.1-0.3,0.2-0.5,0.2c-0.2,0.1-0.3,0.1-0.5,0.2c0,0,0,0,0-0.1C97.3,119.1,97.7,119,98,118.9z M94.8,122.1&#10;              c-0.3,0.3-0.8,0.5-1.2,0.7c-0.1,0-0.1-0.1-0.2-0.1c0,0.1-0.1,0.1-0.1,0.2c-0.1-0.1-0.2-0.1-0.4-0.2&#10;              C93.6,122.4,94.2,122.2,94.8,122.1z M92.6,122.7c0.2,0.2,0.4-0.1,0.6,0.1c-0.1,0.2-0.2,0.1-0.3,0.1c-0.1,0-0.3,0-0.4,0&#10;              C92.5,122.8,92.5,122.8,92.6,122.7z"/><path class="prompted_sign_in__st2" d="M96.1,110.7c0,0,0,0.1-0.1,0.1c0.4,0.1,0.5-0.3,0.7-0.3c0.1,0,0.1,0.1,0.2,0.1l-0.1-0.3c-0.1,0-0.2,0-0.3,0&#10;              C96.4,110.5,96.3,110.7,96.1,110.7z"/><path class="prompted_sign_in__st2" d="M92.7,118.1c-0.4,0.1-0.7,0.3-1.1,0.5c0.1,0,0.2,0,0.3-0.1c1.1-0.3,2.1-0.7,3.1-1.1c0.5-0.2,1-0.4,1.6-0.5&#10;              c0.8-0.2,1.5-0.5,2.3-0.7l-0.1-0.1c-0.5,0.1-0.9,0.3-1.4,0.4C95.9,117,94.3,117.5,92.7,118.1z"/><path class="prompted_sign_in__st2" d="M78.8,123H80c0,0,0.1,0,0.2,0c0,0,0,0,0,0c0,0,0,0,0,0c0.1-0.1,0.2-0.1,0.2-0.2c0.3-0.2,0.6-0.3,0.9-0.4&#10;              c0,0-0.1,0-0.1,0c0,0,0,0,0-0.1c0.1,0,0.2-0.1,0.3-0.1c0,0,0.1,0,0.1,0c0.1,0,0.2,0,0.3,0c0.1,0,0.3-0.1,0.4-0.2&#10;              c-0.1,0-0.1,0-0.2,0c0.1-0.1,0.1-0.2,0.2,0c0.1-0.1,0.1-0.2,0.2-0.2c0.6-0.3,1.2-0.5,1.8-0.7c0.4-0.1,0.8-0.3,1.2-0.4&#10;              c1.3-0.5,2.5-1,3.8-1.4c2.6-0.9,5.2-1.9,7.9-2.7c0.5-0.2,1.1-0.3,1.6-0.5l-0.1-0.2c-0.9,0.3-1.7,0.5-2.6,0.8&#10;              C90.3,118.5,84.5,120.6,78.8,123z M80.3,122.8C80.3,122.7,80.3,122.7,80.3,122.8c0-0.1,0.1-0.1,0.1-0.1c0,0,0,0,0,0&#10;              C80.4,122.7,80.4,122.7,80.3,122.8z M80.8,122.5C80.8,122.5,80.8,122.5,80.8,122.5c0-0.1,0.1-0.1,0.1-0.1c0,0,0,0,0,0&#10;              C80.9,122.5,80.8,122.5,80.8,122.5z"/><path class="prompted_sign_in__st2" d="M83.1,120.9C83.1,120.9,83.1,120.9,83.1,120.9c0.3,0,0.6-0.1,0.9-0.3c1-0.4,2-0.8,2.9-1.2&#10;              c2.2-0.8,4.5-1.7,6.7-2.4c1.4-0.5,2.8-0.9,4.2-1.4c0.3-0.1,0.5-0.2,0.8-0.3l-0.1-0.2c-0.1,0-0.1,0-0.2,0&#10;              C93.3,116.9,88.1,118.7,83.1,120.9z"/><path class="prompted_sign_in__st2" d="M91.6,118.5C91.6,118.5,91.6,118.5,91.6,118.5C91.6,118.5,91.6,118.5,91.6,118.5L91.6,118.5z"/><polygon class="prompted_sign_in__st2" points="70,114.2 70,114.2 70,114.2 70,114.2 &#9;&#9;"/><path class="prompted_sign_in__st2" d="M89.4,120.1c-1.4,0.5-2.8,1.1-4.3,1.7c-0.9,0.4-1.9,0.8-2.8,1.2h2.6c0,0,0,0,0.1,0c0,0,0,0,0,0h0.6&#10;              c0.5-0.2,0.9-0.4,1.4-0.6c1.2-0.5,2.5-1,3.7-1.4c0.6-0.2,1.2-0.4,1.8-0.6c0.6-0.2,1.1-0.4,1.7-0.6c1.5-0.5,2.9-1,4.4-1.5&#10;              c0.4-0.1,0.8-0.2,1.2-0.4l-0.1-0.2c-0.8,0.2-1.6,0.5-2.3,0.8c-1.9,0.7-3.9,1.4-5.8,2c-1.1,0.4-2.2,0.8-3.3,1.2&#10;              c-0.4,0.2-0.9,0.4-1.3,0.5c-0.1,0-0.2,0.1-0.3,0.1c0,0,0-0.1,0-0.1c0.1,0,0.2-0.1,0.2-0.1c0.3-0.1,0.6-0.3,1-0.4&#10;              c1-0.4,2-0.7,3-1.1c1-0.4,2.1-0.8,3.1-1.1c1.3-0.5,2.6-0.9,3.9-1.3c0.6-0.2,1.2-0.4,1.8-0.6l-0.3-0.8c-1.2,0.4-2.5,0.8-3.7,1.2&#10;              C93.5,118.6,91.4,119.4,89.4,120.1z M85.2,123c0-0.2,0-0.2,0.3-0.2C85.4,122.8,85.3,122.9,85.2,123z"/><path class="prompted_sign_in__st2" d="M97.3,114.3C97.4,114.3,97.4,114.3,97.3,114.3C97.4,114.3,97.4,114.3,97.3,114.3&#10;              C97.4,114.3,97.4,114.3,97.3,114.3C97.4,114.3,97.4,114.3,97.3,114.3z"/><polygon class="prompted_sign_in__st2" points="70.5,113.9 70.5,113.9 70.6,113.9 70.5,113.9 &#9;&#9;"/><path class="prompted_sign_in__st2" d="M72.9,113.1C73,113.1,73,113.1,72.9,113.1C73,113.1,73,113.1,72.9,113.1C73,113.1,73,113.1,72.9,113.1&#10;              C73,113.1,73,113.1,72.9,113.1z"/><path class="prompted_sign_in__st2" d="M91.1,116.1C91.1,116.1,91.1,116.1,91.1,116.1C91.2,116.1,91.2,116.1,91.1,116.1&#10;              C91.2,116.1,91.2,116.1,91.1,116.1C91.1,116.1,91.1,116.1,91.1,116.1z"/><polygon class="prompted_sign_in__st2" points="68,116.1 68,116.1 68,116.1 68,116.1 &#9;&#9;"/><path class="prompted_sign_in__st2" d="M68.3,116.1C68.3,116.1,68.3,116,68.3,116.1C68.3,116,68.3,116,68.3,116.1C68.3,116,68.3,116,68.3,116.1&#10;              C68.3,116,68.3,116,68.3,116.1z"/><path class="prompted_sign_in__st2" d="M77.2,122.2C77.2,122.2,77.2,122.2,77.2,122.2C77.2,122.2,77.2,122.2,77.2,122.2&#10;              C77.2,122.2,77.2,122.2,77.2,122.2C77.2,122.2,77.2,122.2,77.2,122.2z"/><path class="prompted_sign_in__st2" d="M69.6,114.4C69.6,114.4,69.6,114.4,69.6,114.4C69.7,114.4,69.7,114.4,69.6,114.4&#10;              C69.7,114.4,69.7,114.4,69.6,114.4C69.6,114.4,69.6,114.4,69.6,114.4z"/><polygon class="prompted_sign_in__st2" points="78.2,115.7 78.2,115.8 78.2,115.8 &#9;&#9;"/><path class="prompted_sign_in__st2" d="M76.6,112.6C76.6,112.6,76.6,112.6,76.6,112.6C76.6,112.6,76.6,112.6,76.6,112.6L76.6,112.6z"/><path class="prompted_sign_in__st2" d="M81.5,115.3C81.5,115.3,81.5,115.3,81.5,115.3C81.5,115.3,81.5,115.3,81.5,115.3L81.5,115.3z"/><path class="prompted_sign_in__st2" d="M75.7,121.9C75.7,121.9,75.7,121.9,75.7,121.9C75.7,121.9,75.7,121.9,75.7,121.9&#10;              C75.7,121.9,75.7,121.9,75.7,121.9C75.7,121.9,75.7,121.9,75.7,121.9z"/><polygon class="prompted_sign_in__st2" points="68.6,114 68.6,114 68.5,114 &#9;&#9;"/><polygon class="prompted_sign_in__st2" points="87.3,113.2 87.3,113.2 87.3,113.2 &#9;&#9;"/><polygon class="prompted_sign_in__st2" points="96.1,110.7 96.1,110.7 96.1,110.7 &#9;&#9;"/><path class="prompted_sign_in__st2" d="M82.4,122.1c-0.7,0.3-1.3,0.5-2,0.8c-0.1,0-0.1,0-0.2,0.1c0,0,0,0,0,0c0,0,0,0,0,0c0,0,0,0,0,0h0.4&#10;              c0.5-0.2,1.1-0.5,1.6-0.7C82.3,122.3,82.3,122.2,82.4,122.1z"/><path class="prompted_sign_in__st2" d="M82.8,122.5c0.6-0.3,1.2-0.5,1.8-0.7c0.8-0.3,1.7-0.7,2.5-1c1-0.4,2.1-0.8,3.1-1.2c0,0,0.1-0.1,0.1-0.1&#10;              c-0.4,0.1-0.7,0.3-1.1,0.4c-1.6,0.6-3.2,1.2-4.8,1.8c-1.1,0.4-2.1,0.9-3.2,1.3h0.7c0.2-0.1,0.4-0.2,0.5-0.3&#10;              C82.5,122.6,82.7,122.6,82.8,122.5z"/><polygon class="prompted_sign_in__st2" points="90.3,119.5 90.3,119.5 90.3,119.5 &#9;&#9;"/><path class="prompted_sign_in__st2" d="M80.2,123C80.2,123,80.2,123,80.2,123C80.2,123,80.2,123,80.2,123C80.2,123,80.2,123,80.2,123&#10;              C80.2,123,80.2,123,80.2,123z"/><path class="prompted_sign_in__st2" d="M81.4,122.3C81.4,122.3,81.4,122.3,81.4,122.3C81.4,122.3,81.4,122.3,81.4,122.3L81.4,122.3z"/><path class="prompted_sign_in__st2" d="M75.4,110.6C75.4,110.6,75.4,110.6,75.4,110.6C75.4,110.6,75.4,110.6,75.4,110.6&#10;              C75.4,110.6,75.4,110.6,75.4,110.6C75.4,110.6,75.4,110.6,75.4,110.6z"/><path class="prompted_sign_in__st2" d="M82.4,122.1C82.4,122.1,82.4,122.1,82.4,122.1C82.4,122.1,82.4,122.1,82.4,122.1L82.4,122.1z"/><path class="prompted_sign_in__st2" d="M79.7,107.6C79.7,107.6,79.7,107.6,79.7,107.6C79.7,107.6,79.7,107.6,79.7,107.6L79.7,107.6z"/><path class="prompted_sign_in__st2" d="M73.2,110.9C73.2,110.9,73.2,110.9,73.2,110.9C73.2,110.9,73.2,110.9,73.2,110.9L73.2,110.9z"/><path class="prompted_sign_in__st2" d="M75,110c1.5-0.7,2.9-1.5,4.4-2.2c0.1,0,0.2-0.1,0.3-0.2c-0.4,0.1-0.7,0.3-1.1,0.4c-0.6,0.2-1.2,0.7-1.9,0.8&#10;              c-0.2,0-0.3,0.2-0.5,0.3c-0.5,0.2-0.9,0.5-1.4,0.7c-0.4,0.2-0.7,0.4-1.1,0.6c-0.2,0.1-0.3,0.2-0.5,0.4c0.1,0,0.1,0,0.2-0.1&#10;              C74,110.6,74.5,110.3,75,110z"/><path class="prompted_sign_in__st2" d="M82.7,114.4c1.2-0.5,2.4-1,3.6-1.5c0.2-0.1,0.4-0.2,0.5-0.2c0,0,0,0,0-0.1c-0.4,0.1-0.8,0.3-1.3,0.5&#10;              c-0.7,0.3-1.5,0.6-2.2,0.9c-0.4,0.2-0.9,0.4-1.3,0.7c0.1,0,0.2,0,0.3-0.1C82.4,114.5,82.5,114.4,82.7,114.4z"/><path class="prompted_sign_in__st2" d="M81.9,114.6C82,114.6,82,114.6,81.9,114.6C82,114.6,81.9,114.6,81.9,114.6C81.9,114.6,81.9,114.6,81.9,114.6z&#10;              "/><path class="prompted_sign_in__st2" d="M81.2,106.6c-0.1,0-0.1,0-0.1,0c-0.8,0.4-1.5,0.7-2.3,1.1c-0.1,0-0.2,0.1-0.1,0.2&#10;              C79.5,107.4,80.3,107,81.2,106.6z"/><polygon class="prompted_sign_in__st2" points="78.7,107.8 78.7,107.8 78.7,107.8 &#9;&#9;"/><path class="prompted_sign_in__st2" d="M75.7,112.6c0.7-0.3,1.3-0.6,2-1C77,111.8,76.3,112.2,75.7,112.6z"/><path class="prompted_sign_in__st2" d="M78.3,115.7c0.5-0.2,1-0.5,1.5-0.7c0.1,0,0.2-0.1,0.2-0.2c-0.3,0.1-0.5,0.2-0.8,0.3c-0.4,0.2-0.7,0.4-1.1,0.6&#10;              C78.2,115.7,78.3,115.7,78.3,115.7z"/><path class="prompted_sign_in__st2" d="M78.2,115.8C78.2,115.7,78.2,115.7,78.2,115.8C78.2,115.7,78.2,115.7,78.2,115.8&#10;              C78.2,115.7,78.2,115.8,78.2,115.8z"/><path class="prompted_sign_in__st2" d="M62.4,119.3c-0.2,0.2-0.3,0.5-0.1,0.7C62.5,119.6,62.5,119.5,62.4,119.3z"/><path class="prompted_sign_in__st2" d="M81,107c0.1,0,0.1-0.1,0.2-0.1c0,0,0,0,0-0.1c-0.5,0.2-0.9,0.5-1.4,0.7c0.1,0,0.1,0,0.2,0&#10;              C80.3,107.4,80.6,107.2,81,107z"/><path class="prompted_sign_in__st2" d="M79.7,107.6C79.7,107.6,79.7,107.6,79.7,107.6C79.7,107.6,79.7,107.6,79.7,107.6&#10;              C79.7,107.6,79.7,107.6,79.7,107.6z"/><path class="prompted_sign_in__st2" d="M79.5,111c-0.4,0.2-0.8,0.4-1.1,0.6C78.7,111.5,79.1,111.2,79.5,111C79.5,111,79.5,111,79.5,111z"/><path class="prompted_sign_in__st2" d="M78.3,111.6C78.3,111.6,78.3,111.6,78.3,111.6C78.3,111.6,78.3,111.6,78.3,111.6L78.3,111.6z"/><path class="prompted_sign_in__st2" d="M89.8,111.5c0.3-0.1,0.6-0.2,1-0.3C90.4,111.1,90.1,111.4,89.8,111.5z"/><path class="prompted_sign_in__st2" d="M95.9,110.9c0-0.1,0-0.3-0.2-0.3c-0.1,0-0.2,0-0.3,0.2c0.1,0,0.2,0,0.2,0C95.6,110.9,95.6,110.9,95.9,110.9z"/><path class="prompted_sign_in__st2" d="M95.1,110.7c0,0.1,0,0.2-0.1,0.3c0.2,0,0.3,0,0.5,0C95.3,110.9,95.2,110.8,95.1,110.7z"/><path class="prompted_sign_in__st2" d="M61.1,119.8c-0.1,0.1-0.4,0.2-0.4,0.4C60.9,120.1,61,120,61.1,119.8z"/><path class="prompted_sign_in__st2" d="M61.1,119.8C61.1,119.8,61.1,119.8,61.1,119.8C61.1,119.8,61.1,119.8,61.1,119.8L61.1,119.8z"/><path class="prompted_sign_in__st2" d="M90.6,112.1c-0.1-0.1-0.1-0.2-0.2-0.3c-0.1,0-0.2,0.1-0.2,0.1C90.3,112.2,90.5,112,90.6,112.1z"/><polygon class="prompted_sign_in__st2" points="96.1,110.7 96.1,110.7 96.1,110.7 &#9;&#9;"/><path class="prompted_sign_in__st2" d="M96,110.3C96,110.3,96,110.3,96,110.3c-0.1,0.1-0.1,0.2-0.1,0.3c0.1,0,0.1,0.1,0.2,0.1&#10;              C96.2,110.4,96.2,110.4,96,110.3z"/><path class="prompted_sign_in__st2" d="M81.9,106.6C81.9,106.6,81.9,106.6,81.9,106.6c-0.2,0-0.3,0.1-0.5,0.1c0,0,0,0,0,0.1&#10;              C81.6,106.7,81.8,106.7,81.9,106.6z"/><path class="prompted_sign_in__st2" d="M81.1,115C81.1,115,81.1,115,81.1,115C81.1,115,81.1,115,81.1,115L81.1,115z"/><path class="prompted_sign_in__st2" d="M80.7,115.3c0.1-0.1,0.3-0.1,0.4-0.3C80.9,115.1,80.8,115.2,80.7,115.3C80.6,115.3,80.6,115.3,80.7,115.3z"/><path class="prompted_sign_in__st2" d="M61.4,119.6c-0.2,0-0.4,0-0.3,0.2C61.2,119.7,61.3,119.7,61.4,119.6z"/><path class="prompted_sign_in__st2" d="M61.1,119.8C61.1,119.8,61.1,119.8,61.1,119.8C61.1,119.8,61.1,119.8,61.1,119.8&#10;              C61.1,119.8,61.1,119.8,61.1,119.8z"/><path class="prompted_sign_in__st2" d="M89.4,110.7C89.4,110.7,89.4,110.6,89.4,110.7c-0.2,0-0.3,0-0.4,0.1c0,0,0,0,0,0.1&#10;              C89.1,110.8,89.3,110.7,89.4,110.7z"/><path class="prompted_sign_in__st2" d="M81.5,115.3C81.5,115.3,81.5,115.3,81.5,115.3C81.5,115.3,81.5,115.3,81.5,115.3&#10;              C81.5,115.3,81.5,115.3,81.5,115.3z"/><path class="prompted_sign_in__st2" d="M81.5,115.3c0.2,0,0.2,0,0.4-0.2C81.8,115.2,81.6,115.3,81.5,115.3z"/><path class="prompted_sign_in__st2" d="M89.5,112.6c0.1,0,0.2,0.1,0.3,0.1C89.7,112.6,89.7,112.6,89.5,112.6z"/><path class="prompted_sign_in__st2" d="M83.8,105.7c-0.1,0.1-0.3,0.1-0.4,0.2C83.5,105.9,83.7,105.9,83.8,105.7z"/><path class="prompted_sign_in__st2" d="M83.8,105.7C83.8,105.7,83.8,105.7,83.8,105.7C83.8,105.7,83.8,105.7,83.8,105.7&#10;              C83.8,105.7,83.8,105.7,83.8,105.7z"/><path class="prompted_sign_in__st2" d="M83.3,105.9C83.3,105.9,83.3,105.9,83.3,105.9C83.3,105.9,83.3,105.9,83.3,105.9L83.3,105.9z"/><path class="prompted_sign_in__st2" d="M84.2,105.4c-0.1,0.1-0.3,0.2-0.4,0.2C84,105.7,84.2,105.7,84.2,105.4z"/><polygon class="prompted_sign_in__st2" points="84.2,105.4 84.2,105.4 84.2,105.4 &#9;&#9;"/><path class="prompted_sign_in__st2" d="M83.8,105.7C83.8,105.7,83.8,105.7,83.8,105.7C83.8,105.7,83.8,105.7,83.8,105.7&#10;              C83.8,105.7,83.8,105.7,83.8,105.7z"/><path class="prompted_sign_in__st2" d="M91.6,102.8C91.5,102.8,91.5,102.8,91.6,102.8c-0.1-0.1-0.1,0-0.2,0c0,0,0,0,0,0.1&#10;              C91.5,102.9,91.5,102.9,91.6,102.8z"/><path class="prompted_sign_in__st2" d="M78.3,111.6C78.2,111.6,78.2,111.6,78.3,111.6C78.2,111.6,78.3,111.6,78.3,111.6&#10;              C78.3,111.6,78.3,111.6,78.3,111.6z"/><path class="prompted_sign_in__st2" d="M78,111.8c0.1-0.1,0.2-0.1,0.3-0.2C78.1,111.7,78,111.7,78,111.8C77.9,111.7,78,111.8,78,111.8z"/><path class="prompted_sign_in__st2" d="M81.9,114.6C81.9,114.6,81.9,114.6,81.9,114.6c-0.1,0.1-0.3,0.1-0.4,0.2c0,0,0,0,0,0&#10;              C81.7,114.8,81.8,114.7,81.9,114.6z"/><path class="prompted_sign_in__st2" d="M81.5,114.9C81.5,114.9,81.5,114.9,81.5,114.9C81.5,114.9,81.5,114.9,81.5,114.9&#10;              C81.5,114.9,81.5,114.9,81.5,114.9z"/><path class="prompted_sign_in__st2" d="M81.1,115C81.1,115,81.1,115,81.1,115C81.1,115,81.1,115,81.1,115C81.1,115,81.1,115,81.1,115z"/><path class="prompted_sign_in__st2" d="M81.5,114.9c-0.1,0.1-0.3,0.1-0.4,0.2C81.3,115.1,81.4,115,81.5,114.9z"/><path class="prompted_sign_in__st2" d="M78.4,108c0.1,0,0.2-0.1,0.3-0.1C78.5,107.8,78.5,107.8,78.4,108z"/><path class="prompted_sign_in__st2" d="M78.7,107.8C78.7,107.8,78.7,107.8,78.7,107.8C78.7,107.8,78.7,107.8,78.7,107.8&#10;              C78.7,107.8,78.7,107.8,78.7,107.8z"/><path class="prompted_sign_in__st2" d="M83,106.1c0.1-0.1,0.2-0.1,0.3-0.2C83.2,106,83.1,106,83,106.1C83,106.1,83,106.1,83,106.1z"/><path class="prompted_sign_in__st2" d="M83.3,105.9C83.3,105.9,83.3,105.9,83.3,105.9C83.3,105.9,83.3,105.9,83.3,105.9&#10;              C83.3,105.9,83.3,105.9,83.3,105.9z"/><path class="prompted_sign_in__st2" d="M84.8,105.6C84.8,105.6,84.8,105.6,84.8,105.6c-0.1,0-0.1,0-0.2,0.1c0,0,0,0,0,0&#10;              C84.7,105.7,84.8,105.6,84.8,105.6z"/><path class="prompted_sign_in__st2" d="M77.8,108.3C77.8,108.2,77.8,108.2,77.8,108.3c-0.1,0-0.2,0-0.2,0c0,0,0,0,0,0&#10;              C77.7,108.3,77.8,108.3,77.8,108.3z"/><path class="prompted_sign_in__st2" d="M68.3,114.2c0.1-0.1,0.2-0.1,0.2-0.2C68.4,114.1,68.3,114.1,68.3,114.2z"/><path class="prompted_sign_in__st2" d="M68.5,114C68.5,114,68.5,114,68.5,114C68.5,114,68.5,114,68.5,114C68.6,114,68.5,114,68.5,114z"/><path class="prompted_sign_in__st2" d="M60.6,120.5c0,0,0,0-0.1-0.1c0,0.1-0.1,0.1-0.1,0.1C60.4,120.5,60.5,120.5,60.6,120.5&#10;              C60.5,120.5,60.5,120.5,60.6,120.5z"/><path class="prompted_sign_in__st2" d="M83.3,106.6c0.1-0.1,0.1-0.1,0.2-0.1C83.3,106.4,83.3,106.4,83.3,106.6z"/><path class="prompted_sign_in__st2" d="M72.9,111.1c0.1-0.1,0.2-0.1,0.2-0.2C73.1,110.9,73,111,72.9,111.1C72.9,111,72.9,111.1,72.9,111.1z"/><path class="prompted_sign_in__st2" d="M73.2,110.9C73.2,110.9,73.2,110.9,73.2,110.9C73.2,110.9,73.2,110.9,73.2,110.9&#10;              C73.2,110.9,73.2,110.9,73.2,110.9z"/><path class="prompted_sign_in__st2" d="M89.4,111.6C89.4,111.6,89.4,111.6,89.4,111.6c-0.1,0-0.2,0-0.2,0c0,0,0,0.1,0,0.1&#10;              C89.3,111.7,89.4,111.7,89.4,111.6z"/><path class="prompted_sign_in__st2" d="M88.7,112.5c0,0,0,0.1,0,0.1c0,0,0.1,0,0.1,0C88.7,112.6,88.7,112.5,88.7,112.5z"/><path class="prompted_sign_in__st2" d="M88.6,112.6C88.6,112.6,88.6,112.6,88.6,112.6C88.6,112.6,88.6,112.6,88.6,112.6&#10;              C88.6,112.6,88.6,112.6,88.6,112.6z"/><polygon class="prompted_sign_in__st2" points="85.9,105 85.9,105 85.9,105 &#9;&#9;"/><path class="prompted_sign_in__st2" d="M85.9,105.3c0-0.1,0-0.2,0-0.3c-0.1,0-0.1,0.1-0.2,0.1C85.8,105.1,85.8,105.2,85.9,105.3z"/><path class="prompted_sign_in__st2" d="M85.5,104.5C85.5,104.5,85.5,104.5,85.5,104.5c-0.1,0-0.1,0-0.2,0c0,0,0,0,0,0&#10;              C85.4,104.6,85.5,104.5,85.5,104.5z"/><path class="prompted_sign_in__st2" d="M86.3,104.2C86.3,104.1,86.3,104.1,86.3,104.2c-0.1,0-0.1,0-0.2,0c0,0,0,0,0,0.1&#10;              C86.2,104.2,86.3,104.2,86.3,104.2z"/><path class="prompted_sign_in__st2" d="M90,103.4C89.9,103.4,89.9,103.4,90,103.4c-0.1,0-0.1,0-0.1,0.1C89.8,103.5,89.9,103.5,90,103.4&#10;              C89.9,103.5,89.9,103.5,90,103.4z"/><path class="prompted_sign_in__st2" d="M93.6,102.1C93.6,102.1,93.6,102.1,93.6,102.1c-0.1,0-0.1,0-0.2,0c0,0,0,0,0,0.1&#10;              C93.5,102.2,93.5,102.2,93.6,102.1z"/><path class="prompted_sign_in__st2" d="M83.6,106.2C83.6,106.2,83.6,106.1,83.6,106.2c-0.1,0-0.1,0-0.2,0c0,0,0,0,0,0.1&#10;              C83.5,106.2,83.6,106.2,83.6,106.2z"/><path class="prompted_sign_in__st2" d="M82.6,106.6C82.6,106.6,82.6,106.6,82.6,106.6c-0.1,0-0.1,0-0.2,0c0,0,0,0,0,0.1&#10;              C82.5,106.7,82.6,106.6,82.6,106.6z"/><polygon class="prompted_sign_in__st2" points="84.2,105.4 84.2,105.4 84.2,105.4 &#9;&#9;"/><path class="prompted_sign_in__st2" d="M84.6,105.3C84.6,105.3,84.6,105.3,84.6,105.3C84.6,105.3,84.6,105.3,84.6,105.3L84.6,105.3z"/><path class="prompted_sign_in__st2" d="M84.6,105.3c-0.1,0-0.2,0.1-0.4,0.1C84.4,105.5,84.5,105.5,84.6,105.3z"/><path class="prompted_sign_in__st2" d="M84.6,105.3C84.6,105.3,84.6,105.3,84.6,105.3C84.6,105.3,84.6,105.3,84.6,105.3&#10;              C84.6,105.3,84.6,105.3,84.6,105.3z"/><path class="prompted_sign_in__st2" d="M84.9,105.2c-0.1,0-0.2,0.1-0.2,0.1C84.7,105.3,84.8,105.3,84.9,105.2C84.9,105.3,84.9,105.2,84.9,105.2z"/><polygon class="prompted_sign_in__st2" points="85.9,105 85.9,105 85.9,105 &#9;&#9;"/><path class="prompted_sign_in__st2" d="M86.2,104.9c-0.1,0-0.2,0-0.3,0.1C86,105,86.1,105,86.2,104.9z"/><path class="prompted_sign_in__st2" d="M88.6,110.9c-0.1,0-0.1,0.1-0.2,0.1C88.5,111,88.6,111,88.6,110.9C88.7,110.9,88.6,110.9,88.6,110.9z"/><path class="prompted_sign_in__st2" d="M88.4,111C88.4,111,88.4,111,88.4,111C88.4,111,88.4,111,88.4,111L88.4,111z"/><path class="prompted_sign_in__st2" d="M88.4,111C88.4,111,88.4,111,88.4,111C88.4,111.1,88.4,111,88.4,111C88.4,111,88.4,111,88.4,111z"/><path class="prompted_sign_in__st2" d="M88.1,111.2c0.1,0,0.2-0.1,0.3-0.1C88.3,111.1,88.2,111.1,88.1,111.2C88.1,111.1,88.1,111.2,88.1,111.2z"/><path class="prompted_sign_in__st2" d="M87.7,111.2c0,0-0.1,0.1-0.1,0.1C87.6,111.3,87.7,111.3,87.7,111.2C87.7,111.3,87.7,111.3,87.7,111.2z"/><path class="prompted_sign_in__st2" d="M81.3,111.6C81.3,111.6,81.3,111.6,81.3,111.6c-0.1,0-0.1,0-0.2,0c0,0,0,0,0,0&#10;              C81.2,111.7,81.2,111.7,81.3,111.6z"/><path class="prompted_sign_in__st2" d="M76.6,112.6c0.1,0,0.2,0,0.2-0.1C76.7,112.5,76.6,112.5,76.6,112.6z"/><path class="prompted_sign_in__st2" d="M76.6,112.6C76.6,112.6,76.6,112.6,76.6,112.6C76.6,112.6,76.6,112.6,76.6,112.6&#10;              C76.6,112.6,76.6,112.6,76.6,112.6z"/><path class="prompted_sign_in__st2" d="M87.3,113C87.3,113,87.3,113,87.3,113c-0.1,0.1-0.1,0.2-0.1,0.2C87.4,113.1,87.4,113.1,87.3,113z"/><path class="prompted_sign_in__st2" d="M87.3,113.2C87.3,113.2,87.3,113.2,87.3,113.2C87.3,113.2,87.3,113.2,87.3,113.2&#10;              C87.3,113.2,87.3,113.2,87.3,113.2z"/><path class="prompted_sign_in__st2" d="M81.6,122.2C81.6,122.2,81.6,122.2,81.6,122.2c-0.1,0.1-0.2,0.1-0.2,0.2C81.5,122.3,81.5,122.3,81.6,122.2&#10;              C81.6,122.3,81.6,122.2,81.6,122.2z"/><path class="prompted_sign_in__st2" d="M81.4,122.3C81.4,122.3,81.4,122.3,81.4,122.3C81.4,122.3,81.4,122.3,81.4,122.3L81.4,122.3z"/><polygon class="prompted_sign_in__st2" points="90.5,116.4 90.5,116.4 90.5,116.4 &#9;&#9;"/><path class="prompted_sign_in__st2" d="M90.5,116.4c0,0,0.1-0.1,0.1-0.1c-0.1,0-0.1,0-0.2,0C90.4,116.4,90.3,116.5,90.5,116.4z"/><path class="prompted_sign_in__st2" d="M98,116.6c-1,0.3-2,0.6-2.9,0.9c-1.3,0.4-2.6,0.9-3.8,1.3c-0.3,0.1-0.5,0.2-0.8,0c0,0.1,0,0.2,0,0.3&#10;              c-0.2,0.1-0.3,0.2-0.5,0.2c0.1-0.1,0.2-0.2,0.3-0.2c-0.4,0.1-0.9,0.2-1.2,0.5c0.1,0,0.1,0,0.2,0c0,0,0,0.1,0,0.1&#10;              c-0.2,0.1-0.3,0.1-0.5,0.2c0,0,0,0,0,0c0.1-0.1,0.2-0.2,0.3-0.2c-0.1,0-0.2,0-0.3,0c-0.6,0.2-1.1,0.4-1.7,0.7&#10;              c-0.6,0.2-1.2,0.5-1.8,0.7c-0.2,0.1-0.4,0.2-0.6,0.3c0.5,0,0.8-0.2,1.2-0.3c0.2-0.1,0.4-0.3,0.6-0.3c0.3,0,0.6-0.2,0.9-0.3&#10;              c1.8-0.6,3.5-1.3,5.3-1.8c2.2-0.7,4.4-1.4,6.6-2.1l-0.1-0.2C98.7,116.4,98.3,116.5,98,116.6z M89.3,119.6c0-0.2,0.1-0.2,0.3-0.1&#10;              C89.5,119.5,89.4,119.5,89.3,119.6z"/><path class="prompted_sign_in__st2" d="M91.6,118.5C91.6,118.5,91.6,118.5,91.6,118.5C91.6,118.5,91.6,118.5,91.6,118.5&#10;              C91.6,118.5,91.6,118.5,91.6,118.5z"/><path class="prompted_sign_in__st2" d="M91.6,118.5c-0.3,0-0.6,0.1-0.8,0.3C91.1,118.8,91.3,118.7,91.6,118.5z"/><path class="prompted_sign_in__st2" d="M82.9,121.9C82.9,121.9,82.9,121.9,82.9,121.9C82.9,121.9,82.9,121.9,82.9,121.9L82.9,121.9z"/><path class="prompted_sign_in__st2" d="M82.9,121.9c-0.2,0.1-0.3,0.1-0.5,0.2C82.6,122.1,82.8,122,82.9,121.9z"/><path class="prompted_sign_in__st2" d="M82.4,122.1C82.4,122.1,82.4,122.1,82.4,122.1C82.4,122.1,82.4,122.1,82.4,122.1&#10;              C82.4,122.1,82.4,122.1,82.4,122.1z"/><path class="prompted_sign_in__st2" d="M82.9,121.9C82.9,121.9,82.9,121.9,82.9,121.9C82.9,121.9,82.9,121.9,82.9,121.9&#10;              C82.9,121.9,82.9,121.9,82.9,121.9z"/><path class="prompted_sign_in__st2" d="M83.3,121.7c-0.1,0.1-0.3,0.1-0.4,0.2C83.2,121.9,83.2,121.9,83.3,121.7z"/><path class="prompted_sign_in__st2" d="M84.2,121.5C84.2,121.4,84.1,121.4,84.2,121.5c-0.1,0-0.1,0-0.2,0c0,0,0,0,0,0.1&#10;              C84.1,121.5,84.1,121.5,84.2,121.5z"/><path class="prompted_sign_in__st2" d="M90.7,119.4c-0.1,0-0.3,0.1-0.4,0.1c0,0,0,0,0,0C90.5,119.5,90.6,119.5,90.7,119.4z"/><path class="prompted_sign_in__st2" d="M83.4,119.7c-0.2,0.1-0.4,0.2-0.5,0.2c0.1,0.1,0.1,0.2,0.2,0.2C83,119.9,83.3,119.9,83.4,119.7z"/><path class="prompted_sign_in__st2" d="M83,120.1C83,120.1,83,120.1,83,120.1C83,120.1,83,120.1,83,120.1C83,120.2,83,120.1,83,120.1z"/><path class="prompted_sign_in__st2" d="M84.7,119.2c-0.1,0.1-0.3,0-0.4,0.2C84.5,119.3,84.6,119.3,84.7,119.2C84.7,119.2,84.7,119.2,84.7,119.2z"/><path class="prompted_sign_in__st2" d="M84.3,119.4C84.3,119.4,84.3,119.4,84.3,119.4C84.3,119.4,84.3,119.4,84.3,119.4L84.3,119.4z"/><path class="prompted_sign_in__st2" d="M83.7,120C83.7,120,83.7,120,83.7,120c-0.1,0-0.2,0-0.3,0c0,0,0,0.1,0,0.1C83.5,120.1,83.6,120.1,83.7,120z"/><polygon class="prompted_sign_in__st2" points="83.9,119.5 83.9,119.5 83.9,119.5 &#9;&#9;"/><path class="prompted_sign_in__st2" d="M83.9,119.5c-0.1,0-0.1,0.1-0.3,0.2C83.8,119.6,83.9,119.7,83.9,119.5z"/><path class="prompted_sign_in__st2" d="M84.3,119.4c-0.1,0-0.3,0.1-0.4,0.1C84,119.5,84.2,119.5,84.3,119.4z"/><path class="prompted_sign_in__st2" d="M84.3,119.4C84.3,119.4,84.3,119.4,84.3,119.4C84.3,119.4,84.3,119.4,84.3,119.4&#10;              C84.3,119.4,84.3,119.4,84.3,119.4z"/><polygon class="prompted_sign_in__st2" points="83.9,119.5 83.9,119.5 83.9,119.5 &#9;&#9;"/></g><path class="prompted_sign_in__st1" d="M53.5,123c-0.8-5.5-2.1-10.3-4.3-13.5L44,123H53.5z"/><path class="prompted_sign_in__st1" d="M66.6,88.1l12.9,8.2c2.2-3.7,5.9-6,9.9-5.9L85.6,80c0,0,3.1-1.6,6.2-5l-10.4-9.7L66.6,88.1z"/></g></g></svg>