<svg xmlns="http://www.w3.org/2000/svg"><g xmlns="http://www.w3.org/2000/svg" id="subscription_manager"><path d="M22 13.5v-3h-2.65c-.2-.95-.57-1.84-1.1-2.63L20.15 6 18 3.88l-1.86 1.87c-.8-.53-1.68-.9-2.64-1.1V2h-3v2.65c-.96.2-1.85.57-2.64 1.1L6 3.88 3.86 6l1.87 1.87c-.52.8-.9 1.68-1.1 2.64H2v3h2.65c.2.97.58 1.86 1.1 2.65L3.87 18 6 20.14l1.87-1.87c.8.52 1.67.9 2.63 1.1V22h3v-2.65c.96-.2 1.84-.57 2.63-1.1l1.87 1.9L20.13 18l-1.88-1.86c.52-.8.9-1.68 1.1-2.63H22zm-10 3c-2.48 0-4.5-2.02-4.5-4.5S9.52 7.5 12 7.5s4.5 2.02 4.5 4.5-2.02 4.5-4.5 4.5z"/></g></svg>