<svg xmlns="http://www.w3.org/2000/svg">
    <g id="subscribe" viewBox="0 0 376 276">
        
        <path d="M375.47 116.9v28.4c-.24 30.27-4 60.58-4 60.58s-3.67 25.8-14.9 37.15c-14.23 14.9-30.18 14.98-37.5 15.84-52.4 3.8-131.12 3.67-131.16 3.67-3.27-.04-97.8-.7-127.24-3.52-8.32-1.56-27.06-1.1-41.3-16C8.1 231.7 4.46 205.9 4.46 205.9S.7 175.6 0 145.3v-28.4c.7-30.3 4.46-60.57 4.46-60.57s3.67-25.8 14.9-37.15C33.6 4.28 49.56 4.2 56.86 3.34c52.4-3.8 131.1-3.32 131.1-3.32s78.67-.47 131.08 3.32c7.3.86 23.26.94 37.5 15.84 11.22 11.34 14.9 37.15 14.9 37.15s3.75 30.27 4.03 60.58zM149.7 78.13V183.7l100.66-52.8L149.7 78.13z"></path>
      </g>
      
</svg>