<svg xmlns="http://www.w3.org/2000/svg">
    <g id="super_chat_for_good">
        <path d="M14.79,10.26c0.39,0.39,1.02,0.39,1.41,0c0.39-0.39,0.39-1.02,0-1.41L11.97,4.6c-2.34-2.34-6.14-2.34-8.49,0 s-1.5,7.01,0,8.49l0,0l7.07-7.07L14.79,10.26z"></path>
        <path d="M12.74,3.96l4.1,4.1c0.7,0.7,0.88,1.84,0.3,2.65c-0.74,1.03-2.19,1.12-3.05,0.26l-3.54-3.54L9.49,8.49L5.6,12.38 l-0.71,0.71c-0.39,0.39-0.39,1.02,0,1.41c0.39,0.39,1.02,0.39,1.41,0l4.6-4.6c0.2-0.2,0.51-0.2,0.71,0c0.2,0.2,0.2,0.51,0,0.71 l-4.6,4.6c-0.39,0.39-0.39,1.02,0,1.41c0.39,0.39,1.02,0.39,1.41,0l4.6-4.6c0.2-0.2,0.51-0.2,0.71,0c0.2,0.2,0.2,0.51,0,0.71 l-4.6,4.6c-0.39,0.39-0.39,1.02,0,1.41c0.39,0.39,1.02,0.39,1.41,0l4.6-4.6c0.2-0.2,0.51-0.2,0.71,0c0.2,0.2,0.2,0.51,0,0.71 l-4.6,4.6c-0.39,0.39-0.39,1.02,0,1.41c0.39,0.39,1.02,0.39,1.41,0l7.59-7.59c1.78-1.72,2.58-6.06,0.39-8.46 C18.56,2.51,15.15,2.23,12.74,3.96z"></path>
      </g>
      
</svg>