<svg xmlns="http://www.w3.org/2000/svg"><g xmlns="http://www.w3.org/2000/svg" id="tab_trending"><path d="M19.642 10.63c-.314-.395-.658-.767-1.026-1.11-.87-.808-1.884-1.375-2.724-2.22-1.72-1.73-2.3-4.183-1.546-6.496.123-.375-.23-.72-.584-.566-.822.36-1.606.873-2.285 1.425-3.43 2.79-4.704 7.446-3.115 11.645.038.144.09.3.09.45 0 .3-.182.57-.448.687-.3.133-.62.044-.856-.175-.072-.068-.137-.143-.197-.222-1.11-1.452-1.52-3.386-1.21-5.19.08-.456-.49-.713-.77-.35-1.4 1.802-2.09 4.21-1.95 6.48.04.68.158 1.355.34 2.008.23.82.57 1.607 1.01 2.33 1.4 2.31 3.854 3.977 6.49 4.31 2.805.355 5.836-.162 7.997-2.15 2.408-2.217 3.285-5.74 2-8.823-.052-.123-.106-.243-.163-.363-.285-.596-.64-1.154-1.045-1.67m-4.288 8.098c-.366.324-.95.645-1.415.797-1.32.435-2.62-.083-3.516-.814-.13-.1-.084-.3.073-.35 1.37-.44 2.173-1.49 2.41-2.542.23-1.015-.182-1.885-.354-2.878-.14-.827-.128-1.544.135-2.297.047-.13.226-.147.283-.02.82 1.825 3.136 2.63 3.534 4.64.037.18.058.367.063.55.034 1.06-.427 2.226-1.21 2.92"/></g></svg>