<svg xmlns="http://www.w3.org/2000/svg"><g xmlns="http://www.w3.org/2000/svg" id="watch_related_mix"><path d="M20.3 11.95c0 2.46-.95 4.7-2.47 6.32l1.07 1.13c1.8-1.92 2.9-4.55 2.9-7.45 0-2.9-1.12-5.54-2.9-7.45l-1.07 1.13c1.52 1.62 2.46 3.86 2.46 6.32zm-17 0c0-2.46.93-4.7 2.45-6.32L4.7 4.5c-1.8 1.9-2.9 4.54-2.9 7.45 0 2.9 1.1 5.53 2.9 7.45l1.05-1.13C4.23 16.64 3.3 14.4 3.3 11.95zm3 0c0-1.6.6-3.03 1.57-4.08L6.8 6.75c-1.24 1.34-2 3.17-2 5.2 0 2.03.76 3.86 2 5.2l1.07-1.12c-.97-1.06-1.58-2.5-1.58-4.08zm10.47-5.2L15.7 7.87c1 1.05 1.6 2.5 1.6 4.08 0 1.6-.6 3.02-1.6 4.08l1.07 1.12c1.25-1.34 2.02-3.17 2.02-5.2 0-2.03-.8-3.86-2.05-5.2zm-6.64 2.93l4.16 2.3-4.2 2.3v-4.6z"/></g></svg>