<svg xmlns="http://www.w3.org/2000/svg"><g xmlns="http://www.w3.org/2000/svg" viewBox="0 0 100 24" id="youtube_red_logo_short"><path d="M28 3.13A3.58 3.58 0 0 0 25.48.6C23.25.02 14.31.02 14.31.02s-8.95 0-11.18.6A3.58 3.58 0 0 0 .6 3.11C.02 5.37.02 10 .02 10s0 4.66.6 6.87a3.58 3.58 0 0 0 2.5 2.52c2.24.59 11.19.59 11.19.59s8.94 0 11.17-.6a3.58 3.58 0 0 0 2.52-2.5c.59-2.24.59-6.88.59-6.88s.02-4.64-.59-6.87z" fill="red"/><path fill="#FFF" d="M11.46 14.3l7.43-4.28-7.43-4.3z"/><path d="M39.01 18.59l-1.83-7.41c-.24.02-.52.04-.8.04h-.3v7.37h-2.74V1.44h3.58c3.5 0 4.59 1.6 4.59 4.68v.42c0 1.84-.71 3.15-1.96 3.9l.54 1.54 1.93 6.6h-3zm-2.47-9.25c1.55 0 2.1-.94 2.1-2.75v-.4c0-2-.5-2.66-2.08-2.66h-.51v5.83h.5v-.02zM45.44 13.27v.64c0 2.2.11 2.96 1.05 2.96.9 0 1.11-.7 1.13-2.12l2.43.14c.19 2.71-1.23 3.91-3.63 3.91-2.9 0-3.76-1.9-3.76-5.36v-2.2c0-3.64.96-5.4 3.83-5.4 2.9 0 3.65 1.5 3.65 5.29v2.14h-4.7zm0-2.59v.9h2.07v-.9c0-2.3-.17-2.96-1.04-2.96s-1.03.68-1.03 2.96zM56.47.8v6.33a2.7 2.7 0 0 0-2.4-1.3c-1.9 0-2.78 1.7-2.78 5.44v1.98c0 4.11.69 5.53 2.66 5.53a2.9 2.9 0 0 0 2.66-1.98h.05l.35 1.79h2.19V.8h-2.73zm0 14.78c-.21.73-.7 1.2-1.25 1.15-.84 0-1.08-.82-1.08-3.67v-1.62c0-2.73.3-3.58 1.2-3.58.45 0 .87.21 1.13.66v7.06z"/></g></svg>