<svg xmlns="http://www.w3.org/2000/svg"><g xmlns="http://www.w3.org/2000/svg" viewBox="0 0 100 24" id="youtube_premiere_logo_short"><path d="M27.34 3.28A3.5 3.5 0 0 0 24.87.81C22.7.23 13.97.23 13.97.23S5.22.23 3.04.81A3.5 3.5 0 0 0 .58 3.28C0 5.46 0 10 0 10s0 4.55.58 6.73a3.5 3.5 0 0 0 2.47 2.47c2.18.58 10.91.58 10.91.58s8.74 0 10.91-.58a3.5 3.5 0 0 0 2.47-2.47c.59-2.18.59-6.73.59-6.73s0-4.54-.59-6.72" fill="red"/><path fill="#FFF" d="M11.17 14.2l7.26-4.2-7.26-4.18z"/><path d="M37.68 6.67c0-2.43-.44-3.01-1.96-3.01h-.5v6.8h.46c1.44 0 2-1.03 2-3.29v-.5zm2.81-.24v.68c0 3.38-1.5 5.35-4.77 5.35h-.5v5.91h-2.67V1.62h3.41c3.12 0 4.53 1.32 4.53 4.81zm6.73-.5l-.14 3.18c-1.14-.24-2.07-.06-2.5.68v8.58h-2.65V6.13h2.12l.24 2.66h.1c.28-1.94 1.17-2.92 2.33-2.92.14 0 .3.02.5.06m3.46 4.74v.87h2.01v-.87c0-2.26-.16-2.9-1.02-2.9-.85 0-1 .66-1 2.9zm0 2.51v.62c0 2.16.12 2.9 1.03 2.9.88 0 1.08-.68 1.1-2.08l2.38.14c.18 2.63-1.2 3.81-3.54 3.81-2.83 0-3.67-1.85-3.67-5.23v-2.13c0-3.56.94-5.3 3.75-5.3 2.84 0 3.56 1.48 3.56 5.18v2.1h-4.61zM69.4 9.13v9.24h-2.75V9.33c0-1-.26-1.5-.86-1.5-.48 0-.92.28-1.22.8.02.16.02.32.02.5v9.24h-2.75V9.33c0-1-.26-1.5-.86-1.5-.48 0-.9.28-1.2.78v9.76h-2.75V6.13h2.17l.24 1.56h.04c.62-1.18 1.62-1.82 2.8-1.82 1.15 0 1.81.58 2.11 1.62a3.1 3.1 0 0 1 2.7-1.62c1.68 0 2.31 1.2 2.31 3.26M71.34 18.37h2.64V6.13h-2.64v12.24zM71.18 3c0-1.32.48-1.7 1.5-1.7 1.04 0 1.5.44 1.5 1.7 0 1.36-.46 1.7-1.5 1.7-1.02 0-1.5-.34-1.5-1.7zm7.2 7.67v.87h2.03v-.87c0-2.26-.16-2.9-1.02-2.9s-1 .66-1 2.9zm0 2.51v.62c0 2.16.13 2.9 1.05 2.9.88 0 1.08-.68 1.1-2.08l2.37.14c.18 2.63-1.2 3.81-3.53 3.81-2.84 0-3.68-1.85-3.68-5.23v-2.13c0-3.56.94-5.3 3.76-5.3C82.28 5.91 83 7.4 83 11.1v2.1H78.4zm11.65-7.25l-.14 3.18c-1.14-.24-2.08-.06-2.5.68v8.58h-2.65V6.13h2.11l.24 2.66h.1c.28-1.94 1.18-2.92 2.34-2.92.14 0 .3.02.5.06m3.45 4.74v.87h2.02v-.87c0-2.26-.16-2.9-1.02-2.9s-1 .66-1 2.9zm0 2.51v.62c0 2.16.12 2.9 1.04 2.9.88 0 1.08-.68 1.1-2.08l2.38.14c.18 2.63-1.2 3.81-3.54 3.81-2.83 0-3.67-1.85-3.67-5.23v-2.13c0-3.56.94-5.3 3.75-5.3 2.84 0 3.56 1.48 3.56 5.18v2.1h-4.62z"/></g></svg>