<svg xmlns="http://www.w3.org/2000/svg"><g xmlns="http://www.w3.org/2000/svg" viewBox="0 0 100 24" id="youtube_music_logo_short"><path d="M28.12 3.1A3.58 3.58 0 0 0 25.6.6C23.36 0 14.42 0 14.42 0S5.48 0 3.25.59A3.58 3.58 0 0 0 .73 3.1C.14 5.34.14 9.98.14 9.98s0 4.66.59 6.87a3.58 3.58 0 0 0 2.52 2.51c2.23.6 11.17.6 11.17.6s8.94 0 11.18-.6a3.58 3.58 0 0 0 2.52-2.51c.59-2.24.59-6.87.59-6.87s0-4.64-.6-6.87z" fill="red"/><path fill="#FFF" d="M11.55 14.28L19 10l-7.44-4.3z"/><path d="M41.3 7.74c-.52 2.59-.9 5.77-1.11 7.08h-.14c-.17-1.34-.54-4.5-1.09-7.06l-1.31-6.35h-3.98v17.15h2.47V4.42l.24 1.32 2.51 12.82h2.47l2.48-12.82.25-1.32v14.14h2.5V1.41h-4.03L41.3 7.74zM53.27 15.98c-.23.47-.7.8-1.2.8-.56 0-.8-.45-.8-1.56v-9.2h-2.82v9.37c0 2.3.75 3.36 2.42 3.36 1.15 0 2.07-.51 2.7-1.74h.08l.23 1.53h2.21V6.02h-2.82v9.96zM61.55 10.96c-.91-.68-1.48-1.12-1.48-2.09 0-.7.33-1.08 1.1-1.08.8 0 1.07.54 1.09 2.42l2.38-.1c.18-3.03-.83-4.3-3.42-4.3-2.4 0-3.6 1.08-3.6 3.32 0 2.02 1 2.94 2.57 4.14 1.36 1.06 2.16 1.65 2.16 2.52 0 .66-.4 1.1-1.13 1.1-.84 0-1.31-.8-1.2-2.18l-2.4.04c-.37 2.6.69 4.12 3.46 4.12 2.43 0 3.7-1.13 3.7-3.36 0-2.07-1.04-2.9-3.23-4.55zM66.33 6.02h2.7v12.52h-2.7zM67.7 1.08c-1.04 0-1.54.4-1.54 1.74 0 1.4.5 1.74 1.53 1.74 1.06 0 1.53-.35 1.53-1.74 0-1.3-.47-1.74-1.53-1.74zM78.1 14.05l-2.48-.12c0 2.21-.23 2.92-1.08 2.92-.85 0-.99-.8-.99-3.4v-2.41c0-2.52.17-3.32 1.01-3.32.78 0 1 .75 1 3.08l2.44-.16c.16-1.96-.07-3.28-.85-4.03-.54-.54-1.39-.82-2.56-.82-2.73 0-3.86 1.48-3.86 5.6v1.76c0 4.26.96 5.63 3.76 5.63 1.18 0 2-.24 2.57-.78.8-.75 1.1-2.02 1.03-3.95z"/></g></svg>