<svg xmlns="http://www.w3.org/2000/svg"><g xmlns="http://www.w3.org/2000/svg" id="account_linked"><path d="M19.5,12.1L22,9.5L18,4H6L2,9.5L12,20l1.3-1.4c0.8,0.8,2,1.4,3.2,1.4c2.5,0,4.5-2,4.5-4.5C21,14.2,20.4,13,19.5,12.1 C19.5,12.1,19.5,12.1,19.5,12.1z M18.6,11.6C18,11.2,17.3,11,16.5,11c0,0-0.1,0-0.1,0l0.5-1h3.3L18.6,11.6z M17.5,5l2.9,4h-3.6 l-2-4H17.5z M13.7,5l2,4H8.3l2-4H13.7z M6.5,5h2.7l-2,4H3.6L6.5,5z M3.9,10h3.3l2.9,6.5L3.9,10z M12,15.5c0,0.7,0.2,1.3,0.4,1.9 c0,0,0,0,0,0l-0.4,1L8.3,10h7.5l-0.5,1.2c0,0,0,0,0,0C13.3,11.8,12,13.5,12,15.5z M16.2,17.4L14.8,16l0.7-0.7l0.7,0.7l1.9-1.9 l0.7,0.7L16.2,17.4z"/></g></svg>