<svg xmlns="http://www.w3.org/2000/svg"><g xmlns="http://www.w3.org/2000/svg" id="auto-awesome"><path d="M9.91,8.7l0.6,2.12l0.15,0.54l0.54,0.15l2.12,0.6l-2.12,0.6l-0.54,0.15l-0.15,0.54l-0.6,2.12l-0.6-2.12l-0.15-0.54 L8.62,12.7l-2.12-0.6l2.12-0.6l0.54-0.15l0.15-0.54L9.91,8.7 M9.91,5.01l-1.56,5.53L2.83,12.1l5.53,1.56l1.56,5.53l1.56-5.53 L17,12.1l-5.53-1.56L9.91,5.01L9.91,5.01z M16.72,16.81l-2.76,0.78l2.76,0.78l0.78,2.76l0.78-2.76l2.76-0.78l-2.76-0.78l-0.78-2.76 L16.72,16.81z M17.5,2.96l-0.78,2.76L13.96,6.5l2.76,0.78l0.78,2.76l0.78-2.76l2.76-0.78l-2.76-0.78L17.5,2.96z"/></g></svg>