<svg xmlns="http://www.w3.org/2000/svg"><g xmlns="http://www.w3.org/2000/svg" id="creator_metadata_monetization_off"><path d="M20.15,20.85l-3.71-3.71c-0.2,0.32-0.45,0.61-0.77,0.86c-0.69,0.54-1.59,0.84-2.66,0.95V21h-2v-2.11 c-0.49-0.09-0.96-0.23-1.41-0.43c-0.81-0.36-1.44-0.85-1.88-1.47c-0.44-0.62-0.66-1.33-0.66-2.12h1.81c0,0.82,0.3,1.47,0.91,1.95 c0.61,0.48,1.42,0.72,2.44,0.72c0.95,0,1.68-0.19,2.18-0.58c0.39-0.3,0.62-0.68,0.71-1.14l-3.01-3.01c-0.07-0.02-0.13-0.04-0.2-0.06 c-1.54-0.44-2.66-0.99-3.36-1.63c-0.7-0.65-1.05-1.44-1.05-2.39c0-0.17,0.02-0.33,0.04-0.49L3.15,3.85l0.71-0.71l17,17L20.15,20.85z M12.11,6.47c0.95,0,1.69,0.24,2.22,0.71c0.52,0.47,0.79,1.12,0.79,1.95h1.81c0-0.75-0.2-1.45-0.6-2.09c-0.4-0.64-0.97-1.14-1.7-1.5 C14.12,5.3,13.58,5.15,13,5.07V3h-2v2.1C10.34,5.2,9.76,5.41,9.25,5.71l1.13,1.13C10.84,6.6,11.41,6.47,12.11,6.47z"/></g></svg>