<svg xmlns="http://www.w3.org/2000/svg"><g xmlns="http://www.w3.org/2000/svg" id="creator_metadata_monetization-filled"><path d="M17.37,15.17c0,1.19-0.45,2.13-1.35,2.81c-0.76,0.58-1.78,0.89-3.02,0.98V21h-2v-2.11c-0.59-0.1-1.15-0.25-1.67-0.48 c-0.9-0.4-1.57-0.94-2.02-1.63c-0.45-0.69-0.68-1.48-0.68-2.38h3.29c0,0.73,0.19,1.27,0.57,1.61c0.38,0.35,0.99,0.52,1.84,0.52 c0.54,0,0.97-0.12,1.29-0.35c0.32-0.23,0.47-0.56,0.47-0.99c0-0.48-0.17-0.85-0.51-1.12c-0.34-0.27-0.94-0.55-1.79-0.83 s-1.55-0.56-2.1-0.83c-1.77-0.87-2.65-2.06-2.65-3.58c0-0.75,0.22-1.42,0.66-2C8.14,6.25,8.76,5.8,9.57,5.48 C10.01,5.3,10.49,5.18,11,5.1V3h2v2.03c0.7,0.07,1.33,0.23,1.91,0.49c0.78,0.35,1.38,0.85,1.81,1.49c0.43,0.65,0.65,1.38,0.65,2.21 H14.1c0-0.56-0.17-0.99-0.51-1.29c-0.34-0.31-0.8-0.46-1.38-0.46c-0.59,0-1.05,0.13-1.39,0.39c-0.34,0.26-0.51,0.59-0.51,0.99 c0,0.35,0.19,0.67,0.56,0.95c0.37,0.28,1.03,0.58,1.97,0.88c0.94,0.3,1.72,0.63,2.32,0.98C16.64,12.51,17.37,13.68,17.37,15.17z"/></g></svg>