<svg xmlns="http://www.w3.org/2000/svg"><g xmlns="http://www.w3.org/2000/svg" id="creator_studio-filled"><path d="M19.56,12c0-0.39-0.03-0.77-0.09-1.14l2.19-2.13l-2-3.46L16.74,6.1c-0.6-0.48-1.27-0.87-2-1.14L14,2h-4L9.26,4.96 c-0.73,0.27-1.4,0.66-2,1.14L4.34,5.27l-2,3.46l2.19,2.13C4.47,11.23,4.44,11.61,4.44,12s0.03,0.77,0.09,1.14l-2.19,2.13l2,3.46 l2.92-0.83c0.6,0.48,1.27,0.87,2,1.14L10,22h4l0.74-2.96c0.73-0.27,1.4-0.66,2-1.14l2.92,0.83l2-3.46l-2.19-2.13 C19.53,12.77,19.56,12.39,19.56,12z M10,15V9l5.2,3L10,15z"/></g></svg>