<svg xmlns="http://www.w3.org/2000/svg"><g xmlns="http://www.w3.org/2000/svg" id="creator_metadata_monetization"><path d="M16.95,15.35c0,1.1-0.43,1.99-1.29,2.65c-0.69,0.54-1.59,0.84-2.66,0.95V21h-2v-2.11c-0.49-0.09-0.96-0.23-1.41-0.43 c-0.81-0.36-1.44-0.85-1.88-1.47c-0.44-0.62-0.66-1.33-0.66-2.12h1.81c0,0.82,0.3,1.47,0.91,1.95c0.61,0.48,1.42,0.72,2.44,0.72 c0.95,0,1.68-0.19,2.18-0.58c0.51-0.39,0.76-0.91,0.76-1.58s-0.23-1.18-0.7-1.55c-0.47-0.36-1.32-0.73-2.55-1.08 c-1.54-0.44-2.66-0.99-3.36-1.63c-0.7-0.65-1.05-1.44-1.05-2.39c0-1.07,0.43-1.96,1.29-2.66C9.38,5.55,10.13,5.24,11,5.1V3h2v2.07 c0.58,0.08,1.12,0.23,1.62,0.48c0.73,0.36,1.3,0.86,1.7,1.5c0.4,0.64,0.6,1.33,0.6,2.09h-1.81c0-0.83-0.26-1.48-0.79-1.95 c-0.52-0.47-1.26-0.71-2.22-0.71c-0.89,0-1.58,0.19-2.07,0.59C9.54,7.45,9.3,7.99,9.3,8.68c0,0.56,0.24,1.03,0.71,1.41 c0.47,0.38,1.27,0.74,2.4,1.05c1.13,0.32,2.02,0.67,2.66,1.05c0.64,0.38,1.11,0.83,1.42,1.34C16.8,14.06,16.95,14.66,16.95,15.35z"/></g></svg>