<svg xmlns="http://www.w3.org/2000/svg"><g xmlns="http://www.w3.org/2000/svg" id="emoji_activities"><path d="M12,2C6.48,2,2,6.48,2,12c0,5.52,4.48,10,10,10s10-4.48,10-10C22,6.48,17.52,2,12,2z M13.89,3.2 c1.55,0.33,2.96,1.07,4.1,2.1l-3.84,3.84C13.44,8.28,13,7.2,13,6C13,4.96,13.34,4,13.89,3.2z M18.7,6.01 c1.02,1.14,1.77,2.55,2.1,4.1C20,10.66,19.04,11,18,11c-1.2,0-2.28-0.44-3.15-1.15L18.7,6.01z M12.8,3.04C12.3,3.92,12,4.92,12,6 c0,1.48,0.54,2.83,1.42,3.87L12,11.29L6.01,5.3C7.6,3.88,9.7,3,12,3C12.27,3,12.53,3.02,12.8,3.04z M5.3,6.01L11.29,12l-1.42,1.42 C8.83,12.54,7.48,12,6,12c-1.08,0-2.09,0.29-2.96,0.79C3.02,12.53,3,12.27,3,12C3,9.7,3.88,7.6,5.3,6.01z M10.11,20.8 c-1.55-0.33-2.96-1.07-4.1-2.1l3.84-3.84C10.56,15.72,11,16.8,11,18C11,19.04,10.66,20,10.11,20.8z M3.2,13.89C4,13.34,4.96,13,6,13 c1.2,0,2.28,0.44,3.15,1.15L5.3,17.99C4.28,16.85,3.54,15.44,3.2,13.89z M11.2,20.96C11.7,20.08,12,19.08,12,18 c0-1.48-0.54-2.83-1.42-3.87L12,12.71l5.99,5.99C16.4,20.12,14.3,21,12,21C11.73,21,11.46,20.98,11.2,20.96z M18.7,17.99L12.71,12 l1.42-1.42C15.17,11.46,16.52,12,18,12c1.08,0,2.08-0.3,2.96-0.8C20.98,11.46,21,11.73,21,12C21,14.3,20.12,16.4,18.7,17.99z"/></g></svg>