<svg xmlns="http://www.w3.org/2000/svg"><g xmlns="http://www.w3.org/2000/svg" id="emoji_activities-filled"><path d="M18,10c-0.74,0-1.42-0.22-2.02-0.57l3.76-3.76c0.64,0.78,1.16,1.66,1.54,2.61C20.55,9.32,19.36,10,18,10z M6,12 c1.3,0,2.49,0.41,3.47,1.11L10.59,12L4.26,5.67C2.85,7.4,2,9.6,2,12c0,0.49,0.05,0.96,0.11,1.43C3.16,12.54,4.52,12,6,12z M12,10.59 l1.11-1.11C12.41,8.49,12,7.3,12,6c0-1.48,0.54-2.84,1.43-3.89C12.96,2.05,12.49,2,12,2C9.6,2,7.4,2.85,5.67,4.26L12,10.59z M18.33,4.26c-0.78-0.64-1.66-1.16-2.61-1.54C14.68,3.45,14,4.64,14,6c0,0.74,0.22,1.42,0.57,2.02L18.33,4.26z M5.67,19.74 c0.78,0.64,1.66,1.16,2.61,1.54C9.32,20.55,10,19.36,10,18c0-0.74-0.22-1.42-0.57-2.02L5.67,19.74z M18,12 c-1.3,0-2.49-0.41-3.47-1.11L13.41,12l6.33,6.33C21.15,16.6,22,14.4,22,12c0-0.49-0.05-0.96-0.11-1.43C20.84,11.46,19.48,12,18,12z M12,13.41l-1.11,1.11C11.59,15.51,12,16.7,12,18c0,1.48-0.54,2.84-1.43,3.89C11.04,21.95,11.51,22,12,22c2.4,0,4.6-0.85,6.33-2.26 L12,13.41z M6,14c-1.36,0-2.55,0.68-3.28,1.72c0.38,0.95,0.9,1.83,1.54,2.61l3.76-3.76C7.42,14.22,6.74,14,6,14z"/></g></svg>