<svg xmlns="http://www.w3.org/2000/svg"><g xmlns="http://www.w3.org/2000/svg" id="full_heart"><path d="M16.5,3C19.02,3,21,5.19,21,7.99c0,3.7-3.28,6.94-8.25,11.86L12,20.59l-0.74-0.73l-0.04-0.04C6.27,14.92,3,11.69,3,7.99 C3,5.19,4.98,3,7.5,3c1.4,0,2.79,0.71,3.71,1.89L12,5.9l0.79-1.01C13.71,3.71,15.1,3,16.5,3 M16.5,2c-1.74,0-3.41,0.88-4.5,2.28 C10.91,2.88,9.24,2,7.5,2C4.42,2,2,4.64,2,7.99c0,4.12,3.4,7.48,8.55,12.58L12,22l1.45-1.44C18.6,15.47,22,12.11,22,7.99 C22,4.64,19.58,2,16.5,2L16.5,2z"/><path fill="none" d="M0,0h24v24H0V0z"/></g></svg>