<svg xmlns="http://www.w3.org/2000/svg"><g xmlns="http://www.w3.org/2000/svg" id="happy-filled"><path d="M16.85,14c-0.5,1.8-2.35,3-4.85,3s-4.35-1.2-4.85-3H8.2c0.54,1.36,2.16,2,3.8,2s3.26-0.64,3.8-2H16.85z M12,4 c-4.41,0-8,3.59-8,8s3.59,8,8,8s8-3.59,8-8S16.41,4,12,4 M12,2c5.52,0,10,4.48,10,10c0,5.52-4.48,10-10,10S2,17.52,2,12 C2,6.48,6.48,2,12,2L12,2z M15.5,11c0.83,0,1.5-0.67,1.5-1.5S16.33,8,15.5,8S14,8.67,14,9.5S14.67,11,15.5,11z M8.5,11 c0.83,0,1.5-0.67,1.5-1.5S9.33,8,8.5,8S7,8.67,7,9.5S7.67,11,8.5,11z"/></g></svg>