<svg xmlns="http://www.w3.org/2000/svg"><g xmlns="http://www.w3.org/2000/svg" id="health_and_safety"><path d="M17,13h-4v4h-2v-4H7v-2h4V7h2v4h4V13z M12,3.1l7,3.21v4.84c0,1.3-0.25,2.6-0.75,3.86c-0.15,0.37-0.33,0.76-0.55,1.17 c-0.15,0.27-0.31,0.54-0.48,0.81C15.91,19,14.06,20.41,12,20.97C9.94,20.41,8.09,19,6.77,16.99c-0.17-0.27-0.33-0.54-0.48-0.81 c-0.22-0.41-0.4-0.79-0.55-1.17C5.25,13.75,5,12.45,5,11.15V6.31L12,3.1 M12,2L4,5.67v5.49c0,1.47,0.3,2.9,0.81,4.22 c0.17,0.44,0.37,0.86,0.6,1.28c0.16,0.3,0.34,0.6,0.52,0.88c1.42,2.17,3.52,3.82,5.95,4.44L12,22l0.12-0.03 c2.43-0.61,4.53-2.26,5.95-4.43c0.19-0.29,0.36-0.58,0.52-0.88c0.22-0.41,0.43-0.84,0.6-1.28C19.7,14.05,20,12.62,20,11.15V5.67 L12,2L12,2z"/></g></svg>