<svg xmlns="http://www.w3.org/2000/svg"><g xmlns="http://www.w3.org/2000/svg" id="language-filled"><path d="M11.99,1.98C6.46,1.98,1.98,6.47,1.98,12s4.48,10.02,10.01,10.02c5.54,0,10.03-4.49,10.03-10.02S17.53,1.98,11.99,1.98z M18.91,7.95h-2.63c-0.35-1.21-0.87-2.38-1.55-3.48C16.49,5.11,17.97,6.35,18.91,7.95z M20.02,12c0,0.69-0.1,1.36-0.26,2h-3.05 c0.19-1.34,0.18-2.71-0.01-4.05h3.04C19.92,10.61,20.02,11.29,20.02,12z M9.28,14c-0.22-1.34-0.22-2.71,0.01-4.05h5.45 c0.23,1.34,0.24,2.71,0.01,4.05H9.28z M14.23,16C13.74,17.38,13,18.7,12,19.9C11,18.71,10.27,17.39,9.79,16H14.23z M3.98,12 c0-0.71,0.1-1.39,0.28-2.05h3.01c-0.2,1.34-0.2,2.71-0.01,4.05H4.24C4.08,13.36,3.98,12.69,3.98,12z M14.21,7.95h-4.4 c0.48-1.37,1.21-2.67,2.19-3.84C12.98,5.29,13.72,6.59,14.21,7.95z M9.28,4.46C8.59,5.57,8.07,6.74,7.71,7.95H5.09 C6.03,6.35,7.51,5.1,9.28,4.46z M5.06,16h2.63c0.36,1.23,0.89,2.42,1.59,3.54C7.49,18.89,6,17.63,5.06,16z M14.72,19.53 c0.69-1.12,1.21-2.31,1.57-3.53h2.65C18,17.62,16.51,18.89,14.72,19.53z"/></g></svg>