<svg xmlns="http://www.w3.org/2000/svg"><g xmlns="http://www.w3.org/2000/svg" id="mix-filled"><path d="M4,12c0,2.21,0.9,4.22,2.36,5.67l-1.41,1.41C3.13,17.27,2,14.76,2,12s1.13-5.27,2.95-7.08l1.41,1.41C4.9,7.78,4,9.79,4,12z M19.05,4.92l-1.41,1.41C19.1,7.78,20,9.79,20,12s-0.9,4.22-2.36,5.67l1.41,1.41C20.87,17.27,22,14.76,22,12S20.87,6.73,19.05,4.92z M9.19,9.16L7.77,7.75C6.68,8.83,6,10.34,6,12s0.68,3.17,1.77,4.25l1.41-1.41C8.46,14.11,8,13.11,8,12S8.46,9.89,9.19,9.16z M16.23,7.75l-1.41,1.41C15.54,9.89,16,10.89,16,12s-0.46,2.11-1.19,2.84l1.41,1.41C17.32,15.17,18,13.66,18,12 S17.32,8.83,16.23,7.75z M14.67,12L10.5,9.6v4.81L14.67,12z"/></g></svg>