<svg xmlns="http://www.w3.org/2000/svg"><g xmlns="http://www.w3.org/2000/svg" id="money_fill"><path d="M11.33,10.86c0.2,0.14,0.53,0.26,1,0.36c0.47,0.1,0.86,0.22,1.18,0.35c0.99,0.4,1.49,1.09,1.49,2.07 c0,0.7-0.28,1.27-0.83,1.71c-0.33,0.26-0.73,0.43-1.17,0.54V17h-2v-1.16c-0.18-0.05-0.37-0.1-0.53-0.19 c-0.46-0.23-0.92-0.55-1.18-0.95C9.15,14.48,9.06,14.24,9,14h2c0.05,0.09,0.07,0.18,0.15,0.25c0.23,0.19,0.54,0.29,0.92,0.29 c0.36,0,0.63-0.07,0.82-0.22s0.28-0.35,0.28-0.59c0-0.25-0.11-0.45-0.34-0.6s-0.59-0.27-1.1-0.39c-1.67-0.39-2.51-1.16-2.51-2.34 c0-0.68,0.26-1.26,0.78-1.71c0.28-0.25,0.62-0.43,1-0.54V7h2v1.12c0.46,0.11,0.85,0.29,1.18,0.57C14.59,9.05,14.9,9.48,15,10h-2 c-0.04-0.09-0.1-0.17-0.16-0.24c-0.17-0.19-0.44-0.29-0.81-0.29c-0.32,0-0.56,0.08-0.74,0.24c-0.17,0.16-0.26,0.36-0.26,0.6 C11.03,10.53,11.13,10.72,11.33,10.86z M21,6v12H3V6H21 M22,5H2v14h20V5L22,5z"/></g></svg>