<svg xmlns="http://www.w3.org/2000/svg"><g xmlns="http://www.w3.org/2000/svg" id="monetization_on-filled"><path d="M12,2C6.48,2,2,6.48,2,12s4.48,10,10,10s10-4.48,10-10S17.52,2,12,2z M10.93,10.23c0.35,0.26,0.85,0.5,1.52,0.72 c1.24,0.41,2.14,0.92,2.7,1.53S16,13.85,16,14.76c0,1.01-0.34,1.8-1.03,2.38c-0.52,0.43-1.17,0.7-1.97,0.81V19h-2v-1.13 c-0.36-0.08-0.71-0.2-1.04-0.37c-0.67-0.33-1.17-0.78-1.52-1.35C8.22,15.81,8.08,15.42,8,15h2c0.26,0.73,1.13,1.1,2.18,1.1 c0.52,0,0.92-0.12,1.21-0.35c0.29-0.23,0.43-0.56,0.43-0.97c0-0.45-0.14-0.8-0.43-1.05c-0.29-0.24-0.81-0.5-1.56-0.77 c-0.75-0.27-1.35-0.54-1.79-0.8c-1.2-0.72-1.8-1.68-1.8-2.9c0-0.63,0.16-1.19,0.48-1.69C9.04,7.08,9.5,6.7,10.1,6.42 c0.28-0.13,0.58-0.22,0.9-0.29V5h2v1.09c0.41,0.07,0.79,0.18,1.14,0.36c0.59,0.3,1.05,0.73,1.37,1.28C15.74,8.12,15.93,8.54,16,9 h-2c-0.07-0.25-0.2-0.47-0.38-0.64c-0.3-0.3-0.98-0.44-1.53-0.44c-0.53,0-0.94,0.12-1.24,0.37c-0.29,0.25-0.44,0.58-0.44,0.98 C10.41,9.65,10.58,9.97,10.93,10.23z"/></g></svg>