<svg xmlns="http://www.w3.org/2000/svg"><g xmlns="http://www.w3.org/2000/svg" id="people-filled"><path d="M14 20C14 17.79 15.79 16 18 16C20.21 16 22 17.79 22 20H14ZM18 16C16.9 16 16 15.1 16 14C16 12.9 16.9 12 18 12C19.1 12 20 12.9 20 14C20 15.1 19.1 16 18 16ZM12.81 20H2C2 15.76 4.77 12.21 10.28 11.93C8.42 11.59 7 9.96 7 8C7 5.79 8.79 4 11 4C13.21 4 15 5.79 15 8C15 9.96 13.58 11.59 11.72 11.93C12.64 11.98 13.47 12.12 14.23 12.34C12.87 13.44 12 15.12 12 17C12 18.09 12.3 19.12 12.81 20Z"/></g></svg>