<svg xmlns="http://www.w3.org/2000/svg"><g xmlns="http://www.w3.org/2000/svg" id="people"><path d="M14 20C14 17.79 15.79 16 18 16C20.21 16 22 17.79 22 20H14ZM18 16C16.9 16 16 15.1 16 14C16 12.9 16.9 12 18 12C19.1 12 20 12.9 20 14C20 15.1 19.1 16 18 16ZM15 8C15 5.79 13.21 4 11 4C8.79 4 7 5.79 7 8C7 9.96 8.42 11.59 10.28 11.93C4.77 12.21 2 15.76 2 20H12.02L12 19H3.06C3.44 15.89 5.67 12.9 11 12.9C11.62 12.9 12.19 12.95 12.73 13.03L13.57 12.19C12.99 12.06 12.38 11.96 11.72 11.93C13.58 11.59 15 9.96 15 8ZM11 11C9.35 11 8 9.65 8 8C8 6.35 9.35 5 11 5C12.65 5 14 6.35 14 8C14 9.65 12.65 11 11 11Z"/></g></svg>