<svg xmlns="http://www.w3.org/2000/svg">
    <g id="privacy_public"><path d="M12,2C6.48,2,2,6.48,2,12c0,5.52,4.48,10,10,10s10-4.48,10-10C22,6.48,17.52,2,12,2z M3,12c0-0.7,0.09-1.37,0.24-2.02 L8,14.71v0.79c0,1.76,1.31,3.22,3,3.46v1.98C6.51,20.44,3,16.62,3,12z M11.5,18C10.12,18,9,16.88,9,15.5v-1.21l-5.43-5.4 C4.84,5.46,8.13,3,12,3c1.05,0,2.06,0.19,3,0.53V5c0,0.55-0.45,1-1,1h-3v2c0,0.55-0.45,1-1,1H8v3h6c0.55,0,1,0.45,1,1v4h2 c0.55,0,1,0.45,1,1v0.69C16.41,20.12,14.31,21,12,21v-3H11.5z M18.97,17.69C18.82,16.73,18,16,17,16h-1v-3c0-1.1-0.9-2-2-2H9v-1h1 c1.1,0,2-0.9,2-2V7h2c1.1,0,2-0.9,2-2V3.95c2.96,1.48,5,4.53,5,8.05C21,14.16,20.24,16.14,18.97,17.69z"></path></g>
</svg>