<svg xmlns="http://www.w3.org/2000/svg">
    <g id="shield_with_avatar-filled"><path d="M12,1.96L4,5.63v5.49c0,1.47,0.3,2.9,0.81,4.22c0.17,0.44,0.37,0.86,0.6,1.28c0.16,0.3,0.34,0.6,0.52,0.88 c1.42,2.17,3.52,3.82,5.95,4.44L12,21.96l0.12-0.03c2.43-0.61,4.53-2.26,5.95-4.43c0.19-0.29,0.36-0.58,0.52-0.88 c0.22-0.41,0.43-0.84,0.6-1.28C19.7,14.01,20,12.58,20,11.11V5.63L12,1.96z M7,17c0-2.38,1.64-4.42,3.92-4.89h0 c0.32-0.06,0.64-0.11,0.96-0.12C10.28,11.92,9,10.62,9,9c0-1.66,1.34-3,3-3s3,1.34,3,3c0,1.62-1.28,2.92-2.88,2.99 c0.32,0.01,0.64,0.06,0.96,0.12C15.36,12.58,17,14.62,17,17H7z"></path></g>
</svg>