<svg xmlns="http://www.w3.org/2000/svg">
    <g id="skip_forward_30"><path d="M11.54,12.88c0.11,0.25,0.16,0.53,0.16,0.83c0,0.37-0.07,0.7-0.2,0.99c-0.13,0.29-0.33,0.54-0.57,0.74 c-0.24,0.2-0.53,0.35-0.85,0.46C9.75,16,9.4,16.05,9.02,16.05c-0.31,0-0.63-0.05-0.93-0.14c-0.3-0.09-0.58-0.23-0.83-0.42 c-0.25-0.19-0.45-0.43-0.59-0.71c-0.15-0.29-0.22-0.63-0.22-1.02v-0.05h1.56v0.05c0,0.19,0.05,0.36,0.14,0.51 c0.09,0.15,0.21,0.27,0.37,0.35c0.16,0.08,0.34,0.13,0.54,0.13c0.22,0,0.42-0.04,0.58-0.13c0.16-0.09,0.28-0.21,0.37-0.36 c0.09-0.16,0.13-0.34,0.13-0.56c0-0.27-0.05-0.5-0.14-0.66c-0.09-0.16-0.23-0.28-0.4-0.36c-0.18-0.08-0.39-0.12-0.63-0.12H8.13 v-1.27h0.83c0.24,0,0.44-0.04,0.59-0.13c0.15-0.09,0.27-0.21,0.34-0.36c0.08-0.16,0.11-0.35,0.11-0.56c0-0.19-0.04-0.36-0.1-0.51 C9.84,9.58,9.74,9.46,9.6,9.38C9.46,9.29,9.28,9.25,9.06,9.25c-0.17,0-0.33,0.04-0.47,0.11c-0.14,0.07-0.26,0.17-0.35,0.3 c-0.08,0.13-0.13,0.28-0.13,0.46v0.05H6.55v-0.05c0-0.44,0.11-0.82,0.34-1.15C7.1,8.66,7.41,8.4,7.78,8.22 c0.37-0.18,0.79-0.27,1.24-0.27c0.51,0,0.95,0.09,1.33,0.26c0.38,0.17,0.69,0.43,0.9,0.76c0.21,0.33,0.32,0.75,0.32,1.25 c0,0.25-0.06,0.5-0.17,0.73c-0.11,0.23-0.27,0.45-0.48,0.64c-0.12,0.11-0.27,0.21-0.45,0.3c0.23,0.09,0.42,0.21,0.57,0.34 C11.27,12.41,11.43,12.63,11.54,12.88z M17.67,11.32v1.35c0,0.59-0.06,1.1-0.18,1.52c-0.12,0.43-0.29,0.78-0.52,1.06 c-0.23,0.27-0.5,0.48-0.81,0.61c-0.31,0.13-0.66,0.2-1.03,0.2c-0.3,0-0.59-0.04-0.85-0.12c-0.26-0.08-0.5-0.21-0.71-0.39 c-0.21-0.18-0.39-0.4-0.54-0.66c-0.15-0.26-0.26-0.58-0.34-0.95c-0.08-0.36-0.12-0.79-0.12-1.26v-1.35c0-0.59,0.06-1.1,0.18-1.52 c0.12-0.42,0.3-0.77,0.52-1.05c0.23-0.27,0.5-0.48,0.81-0.6c0.31-0.13,0.66-0.19,1.03-0.19c0.3,0,0.59,0.04,0.84,0.12 c0.26,0.08,0.5,0.21,0.71,0.38c0.21,0.17,0.39,0.39,0.54,0.66c0.15,0.26,0.26,0.58,0.34,0.95C17.63,10.43,17.67,10.85,17.67,11.32z  M15.84,14.34c0.09-0.15,0.15-0.34,0.19-0.58c0.04-0.24,0.07-0.54,0.07-0.89v-1.76c0-0.28-0.01-0.52-0.04-0.73 c-0.03-0.2-0.07-0.38-0.13-0.53c-0.06-0.14-0.12-0.26-0.2-0.35c-0.08-0.09-0.17-0.15-0.27-0.19c-0.1-0.04-0.22-0.06-0.34-0.06 c-0.16,0-0.3,0.03-0.42,0.1c-0.12,0.06-0.22,0.17-0.3,0.31c-0.08,0.14-0.15,0.33-0.19,0.57c-0.04,0.24-0.07,0.54-0.07,0.88v1.76 c0,0.28,0.01,0.52,0.04,0.74c0.03,0.21,0.07,0.39,0.13,0.54c0.06,0.15,0.13,0.26,0.2,0.35c0.08,0.09,0.17,0.15,0.27,0.19 c0.1,0.04,0.22,0.06,0.34,0.06c0.15,0,0.29-0.03,0.41-0.1C15.65,14.58,15.76,14.48,15.84,14.34z M21,12c0,2.7-1.2,5.23-3.28,6.95 C16.1,20.29,14.07,21,11.98,21c-0.59,0-1.19-0.06-1.78-0.17c-3.52-0.68-6.34-3.51-7.02-7.02c-0.52-2.7,0.16-5.44,1.88-7.52 C6.77,4.2,9.3,3,12,3h2.79l-1.95-1.95l0.71-0.71l3.16,3.16l-3.16,3.16l-0.71-0.71L14.79,4H12C9.6,4,7.35,5.06,5.82,6.92 c-1.53,1.85-2.13,4.29-1.67,6.69c0.61,3.12,3.11,5.63,6.23,6.23c2.41,0.47,4.84-0.14,6.69-1.67C18.94,16.65,20,14.4,20,12H21z"></path></g>
</svg>