<svg xmlns="http://www.w3.org/2000/svg">
    <g id="super_chat_for_good"><path d="M21.29,7.63L21.29,7.63C20.32,5.94,18.55,5,16.73,5c-0.89,0-1.8,0.23-2.63,0.71L12,6.92L9.9,5.71C9.07,5.23,8.17,5,7.27,5 C5.45,5,3.68,5.94,2.71,7.63l0,0c-1.45,2.52-0.59,5.74,1.93,7.19L12,19l7.36-4.17C21.88,13.37,22.75,10.15,21.29,7.63z M3.57,8.13 C4.33,6.82,5.75,6,7.27,6C8.02,6,8.75,6.2,9.4,6.57c0,0,4.22,2.43,4.54,2.61c0.17,0.1,0.32,0.22,0.42,0.39 c0.29,0.46,0.19,1.18-0.43,1.49c-0.36,0.18-0.72,0.16-1.07-0.03c-0.35-0.19-4.62-2.58-4.62-2.58l-1.07,0.6l1.04,0.6L3.53,12.3 c0,0-0.3-0.6-0.38-0.93C2.85,10.27,3,9.12,3.57,8.13z M4.15,13.15c1.43-0.8,5.17-2.88,5.17-2.88l2.2,1.22l-5.39,3.03l-1-0.57 C4.76,13.74,4.44,13.46,4.15,13.15z M20.85,11.37c-0.29,1.1-1,2.02-1.98,2.59L12,17.85l-1.62-0.92l6-3.36 c-0.01-0.02-0.7-0.41-1.04-0.6l-6.01,3.37L7.2,15.13c0,0,5.31-2.97,5.32-2.98c0.07-0.05,0.14-0.05,0.22-0.02 c0.52,0.17,1.03,0.16,1.53-0.06c0.77-0.33,1.22-0.9,1.32-1.72c0.06-0.47-0.05-0.91-0.29-1.32c-0.19-0.32-0.47-0.56-0.79-0.75 c-0.4-0.23-1.45-0.81-1.45-0.81l1.55-0.9C15.25,6.2,15.98,6,16.73,6c1.52,0,2.94,0.82,3.7,2.13C21,9.12,21.15,10.27,20.85,11.37z"></path></g>
</svg>