<svg xmlns="http://www.w3.org/2000/svg">
    <g id="super_chat_for_good-filled"><path d="M21.29,7.63L21.29,7.63C20.32,5.94,18.55,5,16.73,5c-0.89,0-1.8,0.23-2.63,0.71L12,6.92L9.9,5.71C9.07,5.23,8.17,5,7.27,5 C5.45,5,3.68,5.94,2.71,7.63l0,0c-1.45,2.52-0.59,5.74,1.93,7.19L12,19l7.36-4.17C21.88,13.37,22.75,10.15,21.29,7.63z M10.39,16.94 l-1.05-0.59l6.02-3.37c0.34,0.19,1.02,0.58,1.04,0.6L10.39,16.94z M3.52,12.29l4.67-2.65l-1.04-0.6l1.08-0.6c0,0,4.28,2.4,4.63,2.59 c0.35,0.19,0.71,0.21,1.07,0.03c0.62-0.31,0.73-1.03,0.44-1.5c-0.11-0.17-0.25-0.29-0.42-0.39c-0.14-0.08-1-0.57-1.93-1.11l1.05-0.6 c0.08,0.04,1.06,0.59,1.44,0.81c0.33,0.19,0.6,0.43,0.8,0.75c0.25,0.41,0.35,0.85,0.29,1.32c-0.1,0.82-0.55,1.39-1.32,1.73 c-0.5,0.22-1.02,0.23-1.53,0.06c-0.08-0.03-0.15-0.03-0.22,0.02c-0.01,0.01-5.21,2.92-5.33,2.98l-1.07-0.6l5.39-3.04l-2.21-1.22 c0,0-3.73,2.07-5.17,2.88C3.9,12.88,3.69,12.6,3.52,12.29z"></path></g>
</svg>