<svg xmlns="http://www.w3.org/2000/svg">
    <g id="very_sad"><path d="M7.15,17c0.5-1.8,2.35-3,4.85-3s4.35,1.2,4.85,3H15.8c-0.54-1.36-2.16-2-3.8-2s-3.26,0.64-3.8,2H7.15z M15.5,13 c0.83,0,1.5-0.67,1.5-1.5S16.33,10,15.5,10S14,10.67,14,11.5S14.67,13,15.5,13z M8.5,13c0.83,0,1.5-0.67,1.5-1.5S9.33,10,8.5,10 S7,10.67,7,11.5S7.67,13,8.5,13z M9.91,8C9.7,8.58,9.15,9,8.5,9S7.3,8.58,7.09,8H6.05c0.23,1.14,1.24,2,2.45,2s2.22-0.86,2.45-2 H9.91z M16.91,8c-0.21,0.58-0.76,1-1.41,1s-1.2-0.42-1.41-1h-1.04c0.23,1.14,1.24,2,2.45,2s2.22-0.86,2.45-2H16.91z M12,3 c-4.96,0-9,4.04-9,9s4.04,9,9,9s9-4.04,9-9S16.96,3,12,3 M12,2c5.52,0,10,4.48,10,10c0,5.52-4.48,10-10,10S2,17.52,2,12 C2,6.48,6.48,2,12,2L12,2z"></path></g>
</svg>